<?xml version="1.0" encoding="UTF-8" standalone="no"?>
<svg width="15px" height="18px" viewBox="0 0 15 18" version="1.1" xmlns="http://www.w3.org/2000/svg" xmlns:xlink="http://www.w3.org/1999/xlink">
    <!-- Generator: Sketch 40.2 (33826) - http://www.bohemiancoding.com/sketch -->
    <title>Shape</title>
    <desc>Created with Sketch.</desc>
    <defs></defs>
    <g id="Welcome" stroke="none" stroke-width="1" fill="none" fill-rule="evenodd">
        <g id="知识管理平台规范" transform="translate(-50.000000, -7714.000000)" fill="#C9CBCD">
            <g id="Group-18" transform="translate(49.000000, 7593.000000)">
                <g id="Group-6">
                    <path d="M11.2539785,126.319979 L15.0987525,126.26527 L10.048509,121.54801 L10.048509,125.235847 C10.048509,126.332261 11.2539785,126.319979 11.2539785,126.319979 L11.2539785,126.319979 Z M9.18870719,121.5 L2.6871582,121.5 C1.75996993,121.5 1,122.178839 1,123.009523 L1,136.990477 C1,137.820045 1.75872203,138.5 2.6871582,138.5 L13.4128422,138.5 C14.3400305,138.5 15.1000004,137.821161 15.1000004,136.990477 L15.1000004,126.949691 C8.69953114,126.949691 9.18870719,127.600617 9.18870719,121.5 L9.18870719,121.5 Z M8.60843458,134.553133 L4.04362341,134.553133 C3.68298087,134.553133 3.38847692,134.289636 3.38847692,133.966964 C3.38847692,133.644293 3.68298087,133.380796 4.04362341,133.380796 L8.60843458,133.380796 C8.96907713,133.380796 9.26358107,133.644293 9.26358107,133.966964 C9.26358107,134.289636 8.96907713,134.553133 8.60843458,134.553133 L8.60843458,134.553133 Z M12.0551291,132.209576 L4.04362341,132.209576 C3.68298087,132.209576 3.38847692,131.946079 3.38847692,131.623407 C3.38847692,131.300736 3.68298087,131.036122 4.04362341,131.036122 L12.056377,131.036122 C12.4170195,131.036122 12.7115235,131.299619 12.7115235,131.622291 C12.7115235,131.944963 12.4157716,132.209576 12.0551291,132.209576 L12.0551291,132.209576 Z M12.7115235,129.142519 C12.7115235,129.465191 12.4170195,129.728688 12.056377,129.728688 L4.04362341,129.728688 C3.68298087,129.728688 3.38847692,129.465191 3.38847692,129.142519 C3.38847692,128.819848 3.68298087,128.555234 4.04362341,128.555234 L12.056377,128.555234 C12.4157716,128.555234 12.7115235,128.819848 12.7115235,129.142519 L12.7115235,129.142519 Z" id="Shape"></path>
                </g>
            </g>
        </g>
    </g>
</svg>