<?xml version="1.0" encoding="UTF-8" standalone="no"?>
<svg width="14px" height="17px" viewBox="0 0 14 17" version="1.1" xmlns="http://www.w3.org/2000/svg" xmlns:xlink="http://www.w3.org/1999/xlink">
    <!-- Generator: Sketch 40.2 (33826) - http://www.bohemiancoding.com/sketch -->
    <title>字典管理</title>
    <desc>Created with Sketch.</desc>
    <defs></defs>
    <g id="Welcome" stroke="none" stroke-width="1" fill="none" fill-rule="evenodd">
        <g id="左边导航样式1" transform="translate(-10.000000, -74.000000)" fill="#FFFFFF">
            <g id="字典管理" transform="translate(10.000000, 74.000000)">
                <path d="M0.635921659,1.9036875 L0.635921659,1.2684375 C0.635921659,0.9178125 0.914723502,0.63421875 1.25942396,0.63421875 L13.7385945,0.63421875 C13.5206221,0.25678125 12.9498387,0 12.490576,0 L1.25942396,0 C0.570023041,0 0.0124193548,0.56821875 0.0124193548,1.26946875 L0.0124193548,15.2315625 C0.0124193548,15.9328125 0.571036866,16.5 1.25942396,16.5 L1.88394009,16.5 L1.88394009,2.53790625 L1.25942396,2.53790625 C0.914723502,2.53790625 0.635921659,2.2543125 0.635921659,1.9036875 L0.635921659,1.9036875 Z" id="Shape"></path>
                <path d="M6.875,2.53790625 L2.50642857,2.53790625 L2.50642857,16.5 L12.490576,16.5 C13.179977,16.5 13.7375806,15.9317812 13.7375806,15.2315625 L13.7375806,2.53790625 L11.24053,2.53790625 L6.875,2.53790625 L6.875,2.53790625 L6.875,2.53790625 Z M11.2415438,9.5184375 L5.00246544,9.5184375 L5.00246544,8.88421875 L11.24053,8.88421875 L11.24053,9.5184375 L11.2415438,9.5184375 L11.2415438,9.5184375 Z M11.2415438,7.61578125 L5.00246544,7.61578125 L5.00246544,6.9815625 L11.24053,6.9815625 L11.24053,7.61578125 L11.2415438,7.61578125 L11.2415438,7.61578125 Z M11.2415438,5.71209375 L5.00246544,5.71209375 L5.00246544,5.07684375 L11.24053,5.07684375 L11.24053,5.71209375 L11.2415438,5.71209375 Z" id="Shape"></path>
            </g>
        </g>
    </g>
</svg>