<?xml version="1.0" encoding="UTF-8" standalone="no"?>
<svg width="13px" height="15px" viewBox="0 0 13 15" version="1.1" xmlns="http://www.w3.org/2000/svg" xmlns:xlink="http://www.w3.org/1999/xlink">
    <!-- Generator: Sketch 40.2 (33826) - http://www.bohemiancoding.com/sketch -->
    <title>药典</title>
    <desc>Created with Sketch.</desc>
    <defs></defs>
    <g id="Welcome" stroke="none" stroke-width="1" fill="none" fill-rule="evenodd">
        <g id="知识管理平台规范" transform="translate(-245.000000, -7676.000000)" fill="#C9CBCD">
            <g id="Group-22" transform="translate(243.000000, 7593.000000)">
                <g id="Group-6">
                    <g id="药典" transform="translate(2.000000, 83.000000)">
                        <path d="M0.602372035,1.59375 L0.602372035,1.21875 C0.602372035,1.03125 0.802122347,0.84375 1.00187266,0.84375 L12.3876404,0.84375 C12.1878901,0.375 11.7883895,0 11.1891386,0 L1.20162297,0 C0.502496879,0 0.00312109863,0.46875 0.00312109863,1.125 L0.00312109863,13.875 C0.00312109863,14.53125 0.502496879,15 1.20162297,15 L1.50124844,15 L1.50124844,1.96875 L1.00187266,1.96875 C0.702247191,1.96875 0.602372035,1.78125 0.602372035,1.59375 L0.602372035,1.59375 Z" id="Shape"></path>
                        <path d="M2.20037453,1.96875 L2.20037453,15 L11.2890137,15 C11.8882647,15 12.4875156,14.53125 12.4875156,13.875 L12.4875156,1.96875 L2.20037453,1.96875 L2.20037453,1.96875 Z M10.6897628,7.96875 L7.09425718,11.25 C6.29525593,12 4.9968789,12 4.29775281,11.25 C3.49875156,10.5 3.49875156,9.28125 4.29775281,8.625 L7.79338327,5.34375 C8.59238452,4.59375 9.89076155,4.59375 10.5898876,5.34375 C11.3888889,6 11.3888889,7.21875 10.6897628,7.96875 L10.6897628,7.96875 Z" id="Shape"></path>
                        <path d="M8.1928839,5.625 L4.69725343,8.90625 C4.0980025,9.46875 4.0980025,10.3125 4.69725343,10.875 C5.29650437,11.4375 6.19538077,11.4375 6.79463171,10.875 L10.2902622,7.59375 C10.8895131,7.03125 10.8895131,6.1875 10.2902622,5.625 C9.69101124,5.0625 8.79213483,5.0625 8.1928839,5.625 L8.1928839,5.625 Z M6.5948814,10.59375 C6.19538077,10.96875 5.49625468,10.96875 4.9968789,10.59375 L4.9968789,10.59375 C4.59737828,10.21875 4.59737828,9.5625 4.9968789,9.09375 L6.69475655,7.5 L7.4937578,8.25 L8.29275905,9 L6.5948814,10.59375 L6.5948814,10.59375 Z" id="Shape"></path>
                    </g>
                </g>
            </g>
        </g>
    </g>
</svg>