<?xml version="1.0" encoding="UTF-8" standalone="no"?>
<svg width="18px" height="13px" viewBox="0 0 18 13" version="1.1" xmlns="http://www.w3.org/2000/svg" xmlns:xlink="http://www.w3.org/1999/xlink">
    <!-- Generator: Sketch 40.2 (33826) - http://www.bohemiancoding.com/sketch -->
    <title>医院(3)</title>
    <desc>Created with Sketch.</desc>
    <defs></defs>
    <g id="Welcome" stroke="none" stroke-width="1" fill="none" fill-rule="evenodd">
        <g id="知识管理平台规范" transform="translate(-401.000000, -7594.000000)" fill="#C9CBCD">
            <g id="Group-5" transform="translate(401.000000, 7590.000000)">
                <g id="Group-9">
                    <g id="Group-3">
                        <g id="Group-6">
                            <g id="Group-28">
                                <g id="医院(3)" transform="translate(0.000000, 4.000000)">
                                    <polygon id="Shape" points="9.55469531 1.17986143 8.4452168 1.17986143 8.4452168 2.08421571 7.58925 2.08421571 7.58925 3.25631429 8.4452168 3.25631429 8.4452168 4.16109571 9.55469531 4.16109571 9.55469531 3.25631429 10.4105566 3.25631429 10.4105566 2.08421571 9.55469531 2.08421571"></polygon>
                                    <path d="M16.9772168,11.6079043 C16.9990139,11.539428 17.0101681,11.4676735 17.0102461,11.3954286 L17.0102461,3.59151 C17.0102461,3.22156714 16.7263418,2.92171286 16.376168,2.92171286 L12.8466035,2.92171286 L12.8466035,11.2280814 C12.8466035,11.3614243 12.8239277,11.4890286 12.7836035,11.6079229 L12.3695156,11.6079229 C12.3905742,11.54114 12.4026328,11.4696586 12.4026328,11.3954471 L12.4026328,0.677392857 C12.4026328,0.30745 12.1185527,0.00759571428 11.7684668,0.00759571428 L6.23125195,0.00759571428 C5.88107813,0.00759571428 5.59726172,0.30745 5.59726172,0.677392857 L5.59726172,11.3954286 C5.59726172,11.46964 5.60925,11.54114 5.63030859,11.6079043 L5.21650195,11.6079043 C5.17626563,11.48901 5.15339648,11.3614057 5.15339648,11.2280629 L5.15339648,2.92169429 L1.70841797,2.92169429 C1.35834961,2.92169429 1.07451563,3.22154857 1.07451563,3.59149143 L1.07451563,11.3954286 C1.07451563,11.46964 1.08650391,11.54114 1.10747461,11.6079043 L0.0175605469,11.6079043 L0.0175605469,12.9924229 L17.9824395,12.9924229 L17.9824395,11.6079043 L16.9772168,11.6079043 L16.9772168,11.6079043 Z M2.97641602,8.87205429 L2.06760938,8.87205429 L2.06760938,7.91209714 L2.97641602,7.91209714 L2.97641602,8.87205429 L2.97641602,8.87205429 Z M2.97641602,7.18649286 L2.06760938,7.18649286 L2.06760938,6.22627571 L2.97641602,6.22627571 L2.97641602,7.18649286 L2.97641602,7.18649286 Z M2.97641602,5.55649714 L2.06760938,5.55649714 L2.06760938,4.59628 L2.97641602,4.59628 L2.97641602,5.55649714 L2.97641602,5.55649714 Z M4.3925625,8.87205429 L3.48375586,8.87205429 L3.48375586,7.91209714 L4.3925625,7.91209714 L4.3925625,8.87205429 L4.3925625,8.87205429 Z M4.3925625,7.18649286 L3.48375586,7.18649286 L3.48375586,6.22627571 L4.3925625,6.22627571 L4.3925625,7.18649286 L4.3925625,7.18649286 Z M4.3925625,5.55649714 L3.48375586,5.55649714 L3.48375586,4.59628 L4.3925625,4.59628 L4.3925625,5.55649714 L4.3925625,5.55649714 Z M10.41075,11.5629986 L7.74246094,11.5629986 L7.74246094,8.04607143 L10.41075,8.04607143 L10.41075,11.5629986 L10.41075,11.5629986 Z M8.99991211,5.03148286 C7.76568164,5.03148286 6.76504688,3.97430429 6.76504688,2.67029286 C6.76504688,1.36604 7.76585742,0.308861429 8.99991211,0.308861429 C10.2344063,0.308861429 11.2350234,1.36604 11.2350234,2.67029286 C11.2350234,3.97450857 10.2344063,5.03148286 8.99991211,5.03148286 L8.99991211,5.03148286 Z M14.7699141,8.87205429 L13.8611953,8.87205429 L13.8611953,7.91209714 L14.7699141,7.91209714 L14.7699141,8.87205429 L14.7699141,8.87205429 Z M14.7699141,7.18649286 L13.8611953,7.18649286 L13.8611953,6.22627571 L14.7699141,6.22627571 L14.7699141,7.18649286 L14.7699141,7.18649286 Z M14.7699141,5.55649714 L13.8611953,5.55649714 L13.8611953,4.59628 L14.7699141,4.59628 L14.7699141,5.55649714 L14.7699141,5.55649714 Z M16.1858848,8.87205429 L15.2772539,8.87205429 L15.2772539,7.91209714 L16.1858848,7.91209714 L16.1858848,8.87205429 L16.1858848,8.87205429 Z M16.1858848,7.18649286 L15.2772539,7.18649286 L15.2772539,6.22627571 L16.1858848,6.22627571 L16.1858848,7.18649286 L16.1858848,7.18649286 Z M16.1858848,5.55649714 L15.2772539,5.55649714 L15.2772539,4.59628 L16.1858848,4.59628 L16.1858848,5.55649714 L16.1858848,5.55649714 Z" id="Shape"></path>
                                </g>
                            </g>
                        </g>
                    </g>
                </g>
            </g>
        </g>
    </g>
</svg>