<?xml version="1.0" encoding="UTF-8" standalone="no"?>
<svg width="16px" height="17px" viewBox="0 0 16 17" version="1.1" xmlns="http://www.w3.org/2000/svg" xmlns:xlink="http://www.w3.org/1999/xlink">
    <!-- Generator: Sketch 40.2 (33826) - http://www.bohemiancoding.com/sketch -->
    <title>Combined Shape</title>
    <desc>Created with Sketch.</desc>
    <defs></defs>
    <g id="Welcome" stroke="none" stroke-width="1" fill="none" fill-rule="evenodd">
        <g id="左边导航样式1" transform="translate(-12.000000, -195.000000)" fill="#D8D8D8">
            <path d="M12,198.007168 C12,196.346355 13.3456899,195 15.0008721,195 L24.4678779,195 C26.1252138,195 27.46875,196.350264 27.46875,198.007168 L27.46875,208.492832 C27.46875,210.153645 26.1230601,211.5 24.4678779,211.5 L15.0008721,211.5 C13.3435362,211.5 12,210.149736 12,208.492832 L12,198.007168 Z M15.448222,201.195125 C15.5233248,199.239584 17.1397263,197.601227 18.6031063,197.244501 C19.7765291,196.958534 20.629895,196.974906 21.565387,197.576094 C22.1626817,197.960246 22.7391172,198.454645 23.153728,199.061551 C23.2557584,199.210314 23.7794067,198.861949 23.9355351,198.791209 C23.5251641,199.749939 22.7125617,202.371741 22.7125617,202.371741 L19.1632946,201.225141 C19.1632946,201.225141 20.3104856,200.902639 20.4574547,200.291857 C20.6259789,199.592085 19.5718371,198.783196 18.6548093,198.910633 C17.5331057,199.066505 16.4581048,200.082348 15.448222,201.195125 C15.448222,201.195125 17.0303005,198.853589 15.448222,201.195125 Z M23.5857189,200.216233 C25.1727491,201.178352 25.7966478,203.46891 25.4269271,205.031208 C25.1302702,206.283588 24.7287347,207.092477 23.8045705,207.713496 C23.2142828,208.110145 22.5422737,208.437253 21.8500203,208.557772 C21.6808003,208.587442 21.7314352,209.24689 21.7189909,209.428642 C21.1106922,208.599991 19.3062829,206.630388 19.3062829,206.630388 L21.8712679,203.756442 C21.8712679,203.756442 21.6170252,205.000392 22.056104,205.419167 C22.5603495,205.897941 23.7103724,205.258324 24.0215773,204.323145 C24.4026257,203.178788 24.0492655,201.688724 23.5857189,200.216233 C23.5857189,200.216233 24.8080126,202.795053 23.5857189,200.216233 Z M20.3409572,208.309417 C18.7574709,209.278871 16.6071614,208.677196 15.548796,207.535481 C14.7004143,206.618569 14.2599438,205.833649 14.238324,204.663098 C14.2245528,203.915042 14.3077306,203.12814 14.5665853,202.42842 C14.6299882,202.256923 14.07726,201.964837 13.9384468,201.860222 C14.9128738,201.724842 17.4126759,201.072989 17.4126759,201.072989 L18.3921032,204.912201 C18.3921032,204.912201 17.5288012,204.03942 16.9686776,204.229184 C16.3278198,204.447801 16.2484933,205.836308 16.8359329,206.603361 C17.5546608,207.541999 18.9267556,207.980866 20.3409572,208.309417 C20.3409572,208.309417 17.6534547,208.112457 20.3409572,208.309417 Z" id="Combined-Shape"></path>
        </g>
    </g>
</svg>