<?xml version="1.0" encoding="UTF-8" standalone="no"?>
<svg width="16px" height="16px" viewBox="0 0 16 16" version="1.1" xmlns="http://www.w3.org/2000/svg" xmlns:xlink="http://www.w3.org/1999/xlink">
    <!-- Generator: Sketch 40.2 (33826) - http://www.bohemiancoding.com/sketch -->
    <title>Shape</title>
    <desc>Created with Sketch.</desc>
    <defs></defs>
    <g id="Welcome" stroke="none" stroke-width="1" fill="none" fill-rule="evenodd">
        <g id="知识管理平台规范" transform="translate(-50.000000, -7836.000000)" fill="#FFFFFF">
            <g id="Group-18" transform="translate(49.000000, 7593.000000)">
                <g id="Group-6">
                    <path d="M11.9012394,254.724632 C11.5304714,255.285108 11.1532131,255.841456 10.7918124,256.407875 C10.5565868,256.776399 10.5022843,257.188695 10.6164036,257.607292 C10.7951175,258.263341 11.2341276,258.675277 11.8979685,258.796949 C12.5715364,258.920298 13.1206244,258.673 13.5126613,258.109065 C13.8674005,257.59873 14.2104263,257.080141 14.5581958,256.564909 C14.5759713,256.538502 14.5897567,256.509322 14.6016413,256.488019 C13.7078149,255.890262 12.8215063,255.297506 11.925899,254.698533 C11.9179531,254.706788 11.9078838,254.714597 11.9012394,254.724632 L11.9012394,254.724632 Z M16.3749434,252.545473 C16.1522018,251.924016 15.6987213,251.544548 15.0432201,251.460894 C14.3967436,251.378353 13.8776582,251.628631 13.5083458,252.171143 C13.1657138,252.674474 12.825719,253.179671 12.4848851,253.684235 C12.4621777,253.717816 12.4422102,253.753093 12.4332369,253.767786 C13.3222169,254.373968 14.2028401,254.974482 15.0840797,255.575441 C15.4810657,254.986812 15.8778975,254.423544 16.24709,253.842673 C16.5023002,253.441251 16.5343063,252.989552 16.3749434,252.545473 L16.3749434,252.545473 Z M4.87769424,249.780322 C5.24522563,250.147974 5.68584545,250.442365 6.16621183,250.641321 C6.64656108,250.840276 7.16626299,250.943675 7.68613617,250.943675 C8.20607785,250.943675 8.72581402,250.840276 9.20614614,250.641321 C9.68649539,250.442365 10.1271152,250.147974 10.4946637,249.780322 C10.8623321,249.412757 11.1567066,248.972137 11.3556619,248.491805 C11.5546002,248.011507 11.6580165,247.491736 11.6580165,246.971897 C11.6580165,246.451956 11.5546002,245.93222 11.3556619,245.451905 C11.1567066,244.971538 10.862315,244.531021 10.4946637,244.163353 C10.1271152,243.795684 9.68649539,243.501293 9.20614614,243.302355 C8.72581401,243.103399 8.20607783,243 7.68613617,243 C7.16626299,243 6.64656108,243.103399 6.16621183,243.302355 C5.68586257,243.501293 5.24522562,243.795684 4.87769424,244.163353 C4.51002585,244.531004 4.21563426,244.971521 4.01669603,245.451905 C3.81775781,245.93222 3.71432431,246.451956 3.71432431,246.971897 C3.71432431,247.491736 3.81775779,248.011507 4.01669603,248.491805 C4.21563426,248.972137 4.51002585,249.412774 4.87769424,249.780322 L4.87769424,249.780322 Z M7.5399593,252.189244 C3.92810968,252.189244 1,255.117336 1,258.729186 C1,258.768145 1.00077062,258.80659 1.00128436,258.845292 L9.5918469,258.845292 C9.29257476,258.166998 9.12641331,257.416951 9.12641331,256.627962 C9.12641331,255.202241 9.66899391,253.903192 10.5588644,252.926362 C9.65585921,252.455499 8.62899069,252.189244 7.5399593,252.189244 L7.5399593,252.189244 Z M7.77242779,256.64471 L6.53343497,256.64471 L6.53343497,257.883703 L5.02542945,257.883703 L5.02542945,256.64471 L3.78641951,256.64471 L3.78641951,255.136722 L5.02542945,255.136722 L5.02542945,253.897677 L6.53343497,253.897677 L6.53343497,255.136722 L7.77242779,255.136722 L7.77242779,256.64471 L7.77242779,256.64471 Z" id="Shape"></path>
                </g>
            </g>
        </g>
    </g>
</svg>