<?xml version="1.0" encoding="UTF-8" standalone="no"?>
<svg width="14px" height="17px" viewBox="0 0 14 17" version="1.1" xmlns="http://www.w3.org/2000/svg" xmlns:xlink="http://www.w3.org/1999/xlink">
    <!-- Generator: Sketch 40.2 (33826) - http://www.bohemiancoding.com/sketch -->
    <title>Shape</title>
    <desc>Created with Sketch.</desc>
    <defs></defs>
    <g id="Welcome" stroke="none" stroke-width="1" fill="none" fill-rule="evenodd">
        <g id="知识管理平台规范" transform="translate(-244.000000, -7756.000000)" fill="#FFFFFF">
            <g id="Group-22" transform="translate(243.000000, 7593.000000)">
                <g id="Group-6">
                    <path d="M13.2432692,164.36 C13.5865385,164.7 13.8153846,164.926667 14.0442308,165.153333 C14.2730769,165.38 14.3875,165.493333 14.5019231,165.606667 C14.6163462,165.72 14.6163462,165.833333 14.7307692,165.946667 L14.7307692,166.173333 L14.7307692,166.513333 L11.9846154,166.513333 C11.8701923,166.513333 11.7557692,166.513333 11.6413462,166.4 C11.5269231,166.286667 11.5269231,166.173333 11.4125,166.06 C11.4125,165.946667 11.4125,165.833333 11.2980769,165.606667 L11.2980769,165.266667 L11.2980769,163 L11.2980769,163 L11.6413462,163 C11.7557692,163 11.8701923,163.113333 11.9846154,163.226667 C12.0990385,163.34 12.3278846,163.453333 12.4423077,163.566667 C12.6711538,163.906667 13.0144231,164.02 13.2432692,164.36 L13.2432692,164.36 L13.2432692,164.36 Z M10.1538462,165.38 C10.1538462,165.606667 10.1538462,165.833333 10.2682692,166.173333 C10.3826923,166.4 10.4971154,166.626667 10.6115385,166.853333 C10.7259615,167.08 10.9548077,167.306667 11.1836538,167.42 C11.4125,167.533333 11.7557692,167.646667 12.0990385,167.646667 L14.7307692,167.646667 L14.7307692,177.846667 C14.7307692,178.186667 14.6163462,178.526667 14.5019231,178.753333 C14.3875,178.98 14.1586538,179.32 13.9298077,179.433333 C13.7009615,179.66 13.4721154,179.773333 13.1288462,179.886667 C12.9,180 12.5567308,180 12.3278846,180 L3.40288462,180 C3.17403846,180 2.94519231,179.886667 2.60192308,179.773333 C2.37307692,179.66 2.02980769,179.433333 1.80096154,179.206667 C1.57211538,178.98 1.34326923,178.753333 1.22884615,178.413333 C1.11442308,178.413333 1,178.073333 1,177.733333 L1,165.493333 C1,165.266667 1.11442308,164.926667 1.22884615,164.7 C1.34326923,164.473333 1.45769231,164.133333 1.68653846,163.906667 C1.80096154,163.68 2.02980769,163.453333 2.37307692,163.34 C2.60192308,163.226667 2.94519231,163.113333 3.17403846,163.113333 L10.1538462,163.113333 L10.1538462,165.38 L10.1538462,165.38 L10.1538462,165.38 Z M11.2980769,176.713333 C11.6413462,176.713333 11.8701923,176.6 12.0990385,176.373333 C12.3278846,176.146667 12.4423077,175.92 12.4423077,175.58 C12.4423077,175.24 12.3278846,175.013333 12.0990385,174.786667 C11.8701923,174.56 11.6413462,174.446667 11.2980769,174.446667 L4.43269231,174.446667 C4.08942308,174.446667 3.86057692,174.56 3.63173077,174.786667 C3.40288462,175.013333 3.28846154,175.24 3.28846154,175.58 C3.28846154,175.92 3.40288462,176.146667 3.63173077,176.373333 C3.86057692,176.6 4.08942308,176.713333 4.43269231,176.713333 L11.2980769,176.713333 L11.2980769,176.713333 L11.2980769,176.713333 Z M12.4423077,171.046667 C12.4423077,170.706667 12.3278846,170.48 12.0990385,170.253333 C11.8701923,170.026667 11.6413462,169.913333 11.2980769,169.913333 L4.43269231,169.913333 C4.08942308,169.913333 3.86057692,170.026667 3.63173077,170.253333 C3.40288462,170.48 3.28846154,170.706667 3.28846154,171.046667 C3.28846154,171.386667 3.40288462,171.613333 3.63173077,171.84 C3.86057692,172.066667 4.08942308,172.18 4.43269231,172.18 L11.2980769,172.18 C11.6413462,172.18 11.8701923,172.066667 12.0990385,171.84 C12.3278846,171.613333 12.4423077,171.386667 12.4423077,171.046667 L12.4423077,171.046667 L12.4423077,171.046667 Z" id="Shape"></path>
                </g>
            </g>
        </g>
    </g>
</svg>