<?xml version="1.0" encoding="UTF-8" standalone="no"?>
<svg width="15px" height="15px" viewBox="0 0 15 15" version="1.1" xmlns="http://www.w3.org/2000/svg" xmlns:xlink="http://www.w3.org/1999/xlink">
    <!-- Generator: Sketch 40.2 (33826) - http://www.bohemiancoding.com/sketch -->
    <title>Shape</title>
    <desc>Created with Sketch.</desc>
    <defs></defs>
    <g id="Welcome" stroke="none" stroke-width="1" fill="none" fill-rule="evenodd">
        <g id="知识管理平台规范" transform="translate(-50.000000, -7655.000000)" fill="#FFFFFF">
            <g id="Group-18" transform="translate(49.000000, 7593.000000)">
                <g id="Group-6">
                    <path d="M13.8889465,62.5 L2.61115069,62.5 C2.61074587,62.5 2.61047058,62.5 2.61006576,62.500081 C1.72201885,62.5006153 1,63.2229419 1,64.0945689 L1,75.3723161 C1,76.277463 1.72255322,77 2.6111345,77 L13.8888493,77 C14.7774306,77 15.4999838,76.277463 15.4999838,75.3888817 L15.4999838,64.1111345 C15.4999838,63.2225532 14.7774954,62.5 13.8889303,62.5 L13.8889465,62.5 Z M2.6725712,66.8163896 L8.60901767,66.8163896 C8.89578164,66.8163896 9.12823388,67.048858 9.12823388,67.3356058 C9.12823388,67.6223535 8.89576544,67.854822 8.60901767,67.854822 L2.6725712,67.854822 C2.38582343,67.854822 2.15335499,67.6223535 2.15335499,67.3356058 C2.15335499,67.048858 2.38582343,66.8163896 2.6725712,66.8163896 L2.6725712,66.8163896 Z M6.28914268,70.4177233 L2.6725712,70.4177233 C2.38582343,70.4177233 2.15335499,70.1852549 2.15335499,69.8985071 C2.15335499,69.6117593 2.38582343,69.3792909 2.6725712,69.3792909 L6.28914268,69.3792909 C6.57590665,69.3792909 6.80835889,69.6117593 6.80835889,69.8985071 C6.80835889,70.1852549 6.57589045,70.4177233 6.28914268,70.4177233 L6.28914268,70.4177233 Z M6.93515102,74.0155432 L7.34527418,72.0298456 L8.88389589,73.4430678 L6.93515102,74.0155432 L6.93515102,74.0155432 Z M9.15095283,73.1842046 L7.57856846,71.7577688 L11.8260725,67.1498545 L13.3650666,68.5953172 L9.15095283,73.1842046 L9.15095283,73.1842046 Z M14.7272643,67.1079305 L13.6008547,68.3516755 L12.3749383,67.2058665 C12.3749383,67.2058503 12.3749221,67.2058341 12.3749221,67.2058341 L12.0684835,66.9194102 L13.1948931,65.675649 C13.3504281,65.5039048 13.613712,65.4929582 13.7829625,65.651165 L14.7024079,66.5105177 C14.8716584,66.6687407 14.8827992,66.9362025 14.7272643,67.1079305 L14.7272643,67.1079305 Z" id="Shape"></path>
                </g>
            </g>
        </g>
    </g>
</svg>