<?xml version="1.0" encoding="UTF-8" standalone="no"?>
<svg width="17px" height="17px" viewBox="0 0 17 17" version="1.1" xmlns="http://www.w3.org/2000/svg" xmlns:xlink="http://www.w3.org/1999/xlink">
    <!-- Generator: Sketch 40.2 (33826) - http://www.bohemiancoding.com/sketch -->
    <title>Group 11</title>
    <desc>Created with Sketch.</desc>
    <defs></defs>
    <g id="Welcome" stroke="none" stroke-width="1" fill="none" fill-rule="evenodd">
        <g id="知识管理平台规范" transform="translate(-49.000000, -7595.000000)" fill="#C9CBCD">
            <g id="Group-18" transform="translate(49.000000, 7593.000000)">
                <g id="Group-6">
                    <g id="Group-13">
                        <g id="Group-11" transform="translate(0.000000, 2.000000)">
                            <g id="Group">
                                <path d="M15.5566934,10.3209922 L17,10.3209922 L17,6.67797852 L15.5566934,6.67797852 C14.0926348,6.67797852 13.744002,5.83232813 14.7764199,4.79888086 L15.7984453,3.77685547 L13.222082,1.20152148 L12.2010859,2.22251758 C11.1666094,3.25699414 10.3199297,2.90630273 10.3230176,1.44430273 C10.3230176,1.44015234 10.3209258,1.43806055 10.3209258,1.43497266 L10.3209258,0 L6.67953906,0 L6.67953906,1.44848633 C6.67538867,2.90736523 5.83183008,3.25599805 4.79888086,2.22255078 L3.77735352,1.20155469 L1.20205273,3.77685547 L2.22304883,4.79888086 C3.25702734,5.83232813 2.90630273,6.67797852 1.44483398,6.67797852 L0,6.67797852 L0,10.3209922 L1.44486719,10.3209922 C2.90633594,10.3209922 3.25702734,11.1666426 2.22308203,12.2011191 L1.20208594,13.2221152 L3.77741992,15.7984785 L4.79894727,14.7764531 C5.83186328,13.7440352 6.67545508,14.092668 6.67960547,15.5505176 L6.67960547,17 L10.3210586,17 L10.3210586,15.5649941 C10.3210586,15.561873 10.3231504,15.558752 10.3231504,15.5556641 C10.3200293,14.0936973 11.166709,13.744002 12.2012187,14.7764199 L13.2222148,15.7984453 L15.7985781,13.222082 L14.7765527,12.2010859 C13.7440352,11.1666426 14.092668,10.3209922 15.5566934,10.3209922 L15.5566934,10.3209922 Z M8.5,11.6875 C6.73970313,11.6875 5.3125,10.2597656 5.3125,8.5 C5.3125,6.74023438 6.73970313,5.3125 8.5,5.3125 C10.2597656,5.3125 11.6875,6.74023438 11.6875,8.5 C11.6875,10.2597656 10.2597656,11.6875 8.5,11.6875 L8.5,11.6875 Z" id="Shape"></path>
                            </g>
                        </g>
                    </g>
                </g>
            </g>
        </g>
    </g>
</svg>