<?xml version="1.0" encoding="UTF-8" standalone="no"?>
<svg width="14px" height="16px" viewBox="0 0 14 16" version="1.1" xmlns="http://www.w3.org/2000/svg" xmlns:xlink="http://www.w3.org/1999/xlink">
    <!-- Generator: Sketch 40.2 (33826) - http://www.bohemiancoding.com/sketch -->
    <title>Group 5</title>
    <desc>Created with Sketch.</desc>
    <defs></defs>
    <g id="Welcome" stroke="none" stroke-width="1" fill="none" fill-rule="evenodd">
        <g id="知识管理平台规范" transform="translate(-244.000000, -7997.000000)" fill="#FFFFFF">
            <g id="Group-22" transform="translate(243.000000, 7593.000000)">
                <g id="Group-6">
                    <g id="Group-5" transform="translate(1.000000, 404.000000)">
                        <path d="M0.642530171,1.7 L0.642530171,1.3 C0.642530171,1.1 0.85559717,0.9 1.06866417,0.9 L13.2134831,0.9 C13.0004161,0.4 12.5742821,0 11.9350811,0 L1.28173117,0 C0.535996671,0 0.00332917187,0.5 0.00332917187,1.2 L0.00332917187,14.8 C0.00332917187,15.5 0.535996671,16 1.28173117,16 L1.60133167,16 L1.60133167,2.1 L1.06866417,2.1 C0.74906367,2.1 0.642530171,1.9 0.642530171,1.7 L0.642530171,1.7 Z" id="Shape"></path>
                        <path d="M2.34706617,2.1 L2.34706617,16 L12.0416146,16 C12.6808156,16 13.3200166,15.5 13.3200166,14.8 L13.3200166,2.1 L2.34706617,2.1 Z M8.06956856,8.35496151 C8.63086376,8.35496151 9.08607509,8.81224683 9.08607509,9.3772074 C9.08607509,9.9419391 8.63085501,10.3997086 8.06956856,10.3997086 C7.50828211,10.3997086 7.05354324,9.9419391 7.05354324,9.3772074 C7.05354324,8.8124757 7.50827336,8.35496151 8.06956856,8.35496151 L8.06956856,8.35496151 Z M9.17209708,7.10541098 C8.83938308,6.94154777 8.4646205,6.84941817 8.06955981,6.84941817 C7.9543068,6.84941817 7.84122359,6.85743748 7.72982897,6.87227012 L7.56600923,6.0304102 C7.75713518,5.93438099 7.88809297,5.73624867 7.88809297,5.50749157 C7.88809297,5.18464187 7.62811095,4.92307692 7.30747083,4.92307692 C6.98706693,4.92307692 6.72708491,5.18490595 6.72708491,5.50749157 C6.72708491,5.82159134 6.97354944,6.07781302 7.2825794,6.09094672 L7.44519174,6.9282028 C7.01726912,7.03832521 6.63332864,7.2590718 6.32502487,7.55809246 L5.99157594,7.24836766 C6.00027263,7.21894887 6.00485721,7.18807762 6.00485721,7.15599159 C6.00485721,6.97415316 5.85892955,6.82707679 5.67843387,6.82707679 C5.49817442,6.82707679 5.35152058,6.97415316 5.35152058,7.15599159 C5.35152058,7.33735467 5.49794694,7.48441343 5.67843387,7.48441343 C5.71925757,7.48441343 5.75890012,7.47688708 5.795148,7.46303155 L6.12883315,7.77275635 C5.89251767,8.06132814 5.71879386,8.40361432 5.6281873,8.77870835 L5.34693601,8.72669289 C5.31408282,8.51713459 5.13430457,8.35694213 4.91685234,8.35694213 C4.67644224,8.35694213 4.48144041,8.55336672 4.48144041,8.79501984 C4.48144041,9.03715712 4.67643349,9.23284228 4.91685234,9.23284228 C5.0782573,9.23284228 5.2198366,9.1445947 5.2945109,9.0130816 L5.57647962,9.06509705 C5.56391579,9.16720016 5.55715267,9.27172403 5.55715267,9.37724261 C5.55715267,9.81410554 5.66733991,10.2249475 5.86159805,10.5832899 L4.6747449,11.3240327 C4.57036712,11.2228978 4.42877907,11.1611641 4.27316607,11.1611641 C3.95228097,11.1611641 3.69230769,11.4227379 3.69230769,11.7455788 C3.69230769,12.0674426 3.95228972,12.3295181 4.27316607,12.3295181 C4.59378869,12.3295181 4.85355199,12.0674602 4.85355199,11.7455788 C4.85355199,11.6847958 4.84435659,11.6259758 4.82722569,11.5707738 L6.01407885,10.8300311 C6.09743233,10.949634 6.19117984,11.0617107 6.29339657,11.1642979 C6.53549526,11.4083806 6.82739431,11.6026133 7.1521378,11.7307374 L6.84937226,12.6618308 C6.61330176,12.6679047 6.42385566,12.861662 6.42385566,13.1001461 C6.42385566,13.3422834 6.61908497,13.5384615 6.8597488,13.5384615 C7.10041262,13.5384615 7.29516072,13.3422746 7.29516072,13.1001461 C7.29516072,12.9586507 7.22846569,12.8332115 7.12480535,12.7529921 L7.42757088,11.8209303 C7.63223181,11.8758683 7.84751425,11.9047942 8.06957731,11.9047942 C8.16720071,11.9047942 8.26289055,11.8991956 8.35784545,11.8882626 L8.38127577,12.0217299 C8.30008333,12.0820199 8.24717701,12.1780316 8.24717701,12.2872033 C8.24717701,12.4685664 8.39335839,12.6158892 8.57386282,12.6158892 C8.75434975,12.6158892 8.90077611,12.4688128 8.90077611,12.2872033 C8.90077611,12.1376885 8.80195407,12.0122493 8.66663918,11.9718887 L8.64320886,11.8389144 C9.0672556,11.7392408 9.44998868,11.5316279 9.76145091,11.2462251 L10.4522515,11.9261848 C10.4029674,12.0122405 10.374935,12.1114299 10.374935,12.2181457 C10.374935,12.5405112 10.6346895,12.8016008 10.9553209,12.8016008 C11.276206,12.8016008 11.5357068,12.5405112 11.5357068,12.2181457 C11.5357068,11.895296 11.276206,11.633731 10.9553209,11.633731 C10.8451337,11.633731 10.7424358,11.6646111 10.6544889,11.7183343 L9.96391579,11.0378904 C10.3193427,10.6280167 10.5450191,10.1014538 10.5776361,9.52335948 L11.4689855,9.52335948 C11.5286637,9.69377194 11.6900687,9.81532032 11.8794885,9.81532032 C12.1201524,9.81532032 12.3151367,9.61913341 12.3151367,9.37749789 C12.3151367,9.13536061 12.1201436,8.9391825 11.8794885,8.9391825 C11.6900599,8.9391825 11.5286462,9.06121504 11.4689855,9.23140743 L10.5776361,9.23140743 C10.5452554,8.6588941 10.323691,8.13743673 9.9745373,7.72926196 L11.338264,6.40459755 C11.3964986,6.43426282 11.4631761,6.45104087 11.5332571,6.45104087 C11.7734309,6.45104087 11.9689052,6.25461628 11.9689052,6.012479 C11.9689052,5.77034172 11.7734309,5.57465656 11.5332571,5.57465656 C11.292847,5.57465656 11.0978451,5.770597 11.0978451,6.012479 C11.0978451,6.07763696 11.1118526,6.13937946 11.136989,6.19481919 L9.77349854,7.51925472 C9.66572608,7.41909702 9.5490382,7.32841988 9.42532473,7.24868456 L9.79597519,6.58477226 C9.82037667,6.58914723 9.84525935,6.59109264 9.87112194,6.59109264 C10.111532,6.59109264 10.3067701,6.39490572 10.3065339,6.15301492 C10.3065339,5.91113293 10.1115408,5.71493721 9.87112194,5.71493721 C9.63045812,5.71493721 9.43547378,5.91112412 9.43547378,6.15301492 C9.43547378,6.26362149 9.47629748,6.36451863 9.54348247,6.44182439 L9.17210583,7.10550781 L9.17209708,7.10541098 Z" id="Combined-Shape"></path>
                    </g>
                </g>
            </g>
        </g>
    </g>
</svg>