<?xml version="1.0" encoding="UTF-8" standalone="no"?>
<svg width="15px" height="17px" viewBox="0 0 15 17" version="1.1" xmlns="http://www.w3.org/2000/svg" xmlns:xlink="http://www.w3.org/1999/xlink">
    <!-- Generator: Sketch 40.2 (33826) - http://www.bohemiancoding.com/sketch -->
    <title>Shape</title>
    <desc>Created with Sketch.</desc>
    <defs></defs>
    <g id="Welcome" stroke="none" stroke-width="1" fill="none" fill-rule="evenodd">
        <g id="知识管理平台规范" transform="translate(-50.000000, -7775.000000)" fill="#C9CBCD">
            <g id="Group-18" transform="translate(49.000000, 7593.000000)">
                <g id="Group-6">
                    <path d="M13.5477,182 L2.75663125,182 C2.65946562,182 2.56256562,182.008093 2.46924271,182.02442 C1.6355875,182.161943 1,182.882353 1,183.756631 L1,197.243369 C1,198.117647 1.6355875,198.837792 2.46924271,198.975704 C2.56256562,198.992049 2.65932396,199 2.75663125,199 L13.5477,199 C14.6646177,199 15.5714083,198.093068 15.5714083,196.97615 L15.5714083,184.023708 C15.5714083,182.906791 14.6646177,182 13.5477,182 L13.5477,182 Z M3.83333333,186.25 C3.83333333,186.136755 3.92226458,186.0477 4.035775,186.0477 L12.9403927,186.0477 C13.0540271,186.0477 13.1428344,186.136773 13.1428344,186.25 L13.1428344,186.654742 C13.1428344,186.76811 13.0540271,186.857042 12.9403927,186.857042 L4.035775,186.857042 C3.92240625,186.857042 3.83333333,186.76811 3.83333333,186.654742 L3.83333333,186.25 L3.83333333,186.25 Z M3.83333333,188.678592 C3.83333333,188.565223 3.92226458,188.47615 4.035775,188.47615 L12.9403927,188.47615 C13.0540271,188.47615 13.1428344,188.565223 13.1428344,188.678592 L13.1428344,189.083333 C13.1428344,189.196702 13.0540271,189.285633 12.9403927,189.285633 L4.035775,189.285633 C3.92240625,189.285633 3.83333333,189.196702 3.83333333,189.083333 L3.83333333,188.678592 L3.83333333,188.678592 Z M14.8063906,196.166667 C14.8063906,197.28346 13.8998656,198.190375 12.7826823,198.190375 L3.22629167,198.190375 C2.95110417,198.190375 2.68801146,198.109253 2.46938438,197.967764 C2.07287708,197.716748 1.80976667,197.275633 1.80976667,196.773584 L1.80976667,196.368843 C1.80976667,195.866935 2.07287708,195.425803 2.46938438,195.174929 C2.68801146,195.033156 2.95110417,194.952052 3.22629167,194.952052 L14.8063906,194.952052 L14.8063906,196.166667 L14.8063906,196.166667 Z" id="Shape"></path>
                </g>
            </g>
        </g>
    </g>
</svg>