<?xml version="1.0" encoding="UTF-8" standalone="no"?>
<svg width="15px" height="15px" viewBox="0 0 15 15" version="1.1" xmlns="http://www.w3.org/2000/svg" xmlns:xlink="http://www.w3.org/1999/xlink">
    <!-- Generator: Sketch 40.2 (33826) - http://www.bohemiancoding.com/sketch -->
    <title>Shape</title>
    <desc>Created with Sketch.</desc>
    <defs></defs>
    <g id="Welcome" stroke="none" stroke-width="1" fill="none" fill-rule="evenodd">
        <g id="知识管理平台规范" transform="translate(-554.000000, -7673.000000)" fill="#FFFFFF">
            <g id="Group-31" transform="translate(554.000000, 7590.000000)">
                <g id="Group-11">
                    <path d="M4.81515172,84.4666101 C5.08279753,84.4666101 5.31176175,84.5592804 5.50203751,84.7446209 C5.69231328,84.9299615 5.78745287,85.1562915 5.78745287,85.4236179 L5.78745287,89.2817653 C5.78745287,89.5494111 5.69231328,89.7783753 5.50203751,89.9686511 C5.31176175,90.1589268 5.08279753,90.2540664 4.81515172,90.2540664 L0.957004356,90.2540664 C0.689358551,90.2540664 0.463025079,90.1589303 0.278007373,89.9686511 C0.092989668,89.7783753 0.000319398697,89.5494111 2.69118061e-13,89.2817653 L2.69118061e-13,85.4236179 C2.69118061e-13,85.1559721 0.0926702693,84.9296386 0.278007373,84.7446209 C0.463344478,84.5596032 0.68967795,84.466933 0.957004356,84.4666136 C0.957004356,84.4666101 4.81515172,84.4666101 4.81515172,84.4666101 L4.81515172,84.4666101 Z M4.81515172,92.1823931 C5.08279753,92.1823931 5.31176175,92.2750634 5.50203751,92.4604005 C5.69231328,92.6457411 5.78745287,92.8720711 5.78745287,93.1393975 L5.78745287,97.0128554 C5.78745287,97.2805012 5.69231328,97.5068347 5.50203751,97.6918524 C5.31176175,97.8768735 5.08279753,97.9695404 4.81515172,97.9698598 L0.957004356,97.9698598 C0.689358551,97.9698598 0.463025079,97.8771929 0.278007373,97.6918524 C0.092989668,97.5065118 0.000319398697,97.2801784 2.69118061e-13,97.0128554 L2.69118061e-13,93.1393975 C2.69118061e-13,92.8717517 0.0926702693,92.6454182 0.278007373,92.4604005 C0.463344478,92.2753828 0.68967795,92.1827125 0.957004356,92.1823931 L4.81515172,92.1823931 L4.81515172,92.1823931 Z M12.546259,92.1823931 C12.8139048,92.1823931 13.0402383,92.2750634 13.225256,92.4604005 C13.4102771,92.6457411 13.502944,92.8720711 13.5032668,93.1393975 L13.5032668,97.0128554 C13.5032668,97.2805012 13.4105965,97.5068347 13.225256,97.6918524 C13.0399154,97.8768735 12.8135854,97.9695404 12.546259,97.9698598 L8.68811164,97.9698598 C8.42046583,97.9698598 8.19150161,97.8771929 8.00122585,97.6918524 C7.81095009,97.5065118 7.71581049,97.2801784 7.71581049,97.0128554 L7.71581049,93.1393975 C7.71581049,92.8717517 7.81095009,92.6454182 8.00122585,92.4604005 C8.19150161,92.2753828 8.42046583,92.1827125 8.68811164,92.1823931 L12.546259,92.1823931 L12.546259,92.1823931 L12.546259,92.1823931 Z M14.6913716,86.1638399 C14.8971227,86.3695944 15.0000034,86.6113964 15,86.8892492 C15,87.1671021 14.8971227,87.403804 14.6913716,87.5993481 L11.8208496,90.4698701 C11.615095,90.6756212 11.3759272,90.7784985 11.1033428,90.7784985 C10.8307583,90.7784985 10.5915905,90.6756212 10.3858394,90.4698701 L7.5153174,87.5993481 C7.31976984,87.4038005 7.2219995,87.1671021 7.2219995,86.8892492 C7.2219995,86.6113964 7.31977328,86.369591 7.5153174,86.1638399 L10.3858394,83.2933179 C10.5915905,83.0977703 10.8307617,83 11.1033428,83 C11.3759272,83 11.615095,83.0977738 11.8208496,83.2933179 L14.6913716,86.1638399 L14.6913716,86.1638399 Z" id="Shape"></path>
                </g>
            </g>
        </g>
    </g>
</svg>