<?xml version="1.0" encoding="UTF-8" standalone="no"?>
<svg width="13px" height="15px" viewBox="0 0 13 15" version="1.1" xmlns="http://www.w3.org/2000/svg" xmlns:xlink="http://www.w3.org/1999/xlink">
    <!-- Generator: Sketch 40.2 (33826) - http://www.bohemiancoding.com/sketch -->
    <title>Shape</title>
    <desc>Created with Sketch.</desc>
    <defs></defs>
    <g id="Welcome" stroke="none" stroke-width="1" fill="none" fill-rule="evenodd">
        <g id="知识管理平台规范" transform="translate(-555.000000, -7591.000000)" fill="#FFFFFF">
            <g id="Group-31" transform="translate(554.000000, 7590.000000)">
                <g id="Group-11">
                    <path d="M12.7857278,16 L2.07144703,16 C1.47970121,16 1,15.5522007 1,14.9997162 L1,7.49972481 C1,6.94777455 1.47970121,6.49997528 2.07144703,6.49997528 L12.7857278,6.49997528 C13.3774047,6.49997528 13.8571749,6.94777455 13.8571749,7.49972481 L13.8571749,14.9997162 C13.8571749,15.5522007 13.3774047,16.0000517 12.7857968,16 L12.7857278,16 L12.7857278,16 Z M7.42854435,9.00013329 C6.54071879,9.00013329 5.82143411,9.67138408 5.82143411,10.5000247 C5.82143411,11.0535778 6.14686502,11.5322794 6.62503232,11.791752 L6.62503232,13.2189291 C6.62503232,13.6499587 6.98489871,13.9999839 7.42863053,13.9999839 C7.87220723,13.9999839 8.23222874,13.6499587 8.23222874,13.2189291 L8.23222874,11.791752 C8.71036158,11.5322794 9.03574076,11.0535778 9.03574076,10.5000247 C9.03574076,9.67147025 8.31645608,9.00021945 7.42863053,9.00021945 L7.42854435,9.00013329 L7.42854435,9.00013329 Z M7.42854435,2.49987419 C5.65349645,2.49987419 4.21425494,3.84287558 4.21425494,5.49970873 L2.60717919,5.49970873 C2.60717919,3.01470028 4.76567092,1 7.42854436,1 C10.0914178,1 12.2499957,3.01468305 12.2499957,5.49970873 L10.6428855,5.49970873 C10.6428855,3.84287556 9.20366117,2.49987419 7.42854435,2.49987419 L7.42854435,2.49987419 L7.42854435,2.49987419 Z" id="Shape"></path>
                </g>
            </g>
        </g>
    </g>
</svg>