<?xml version="1.0" encoding="UTF-8" standalone="no"?>
<svg width="12px" height="13px" viewBox="0 0 12 13" version="1.1" xmlns="http://www.w3.org/2000/svg" xmlns:xlink="http://www.w3.org/1999/xlink">
    <!-- Generator: Sketch 40.2 (33826) - http://www.bohemiancoding.com/sketch -->
    <title>Fill 1</title>
    <desc>Created with Sketch.</desc>
    <defs></defs>
    <g id="Welcome" stroke="none" stroke-width="1" fill="none" fill-rule="evenodd">
        <g id="-首页&gt;-资料管理&gt;分类管理&gt;资料分类管理（添加分类）" transform="translate(-328.000000, -302.000000)" fill="#FFFFFF">
            <path d="M332.614904,304.872412 C332.299115,304.872412 332.043121,305.129328 332.043121,305.44691 L332.048457,312.650379 C332.048457,312.967373 332.304451,313.224876 332.62024,313.224876 C332.935956,313.224876 333.191949,312.967373 333.191949,312.650379 L333.186686,305.44691 C333.186686,305.129328 332.930619,304.872412 332.614904,304.872412 L332.614904,304.872412 Z M337.770897,312.851915 L337.771601,313.794599 L337.762555,313.794599 L337.770897,312.851915 Z M339.457727,303.166328 L334.904812,303.168458 L334.902253,302.574497 C334.902253,302.256989 334.64626,302 334.330178,302 C334.226085,302 334.128497,302.02813 334.044433,302.076972 C333.960296,302.02813 333.862635,302 333.758396,302 C333.44268,302 333.186686,302.256989 333.186686,302.574497 L333.189318,303.169266 L329.903944,303.170808 C329.857818,303.158763 329.8095,303.152373 329.759646,303.152373 C329.709646,303.152373 329.661181,303.158836 329.614982,303.170955 L328.571783,303.171469 C328.255994,303.171469 328,303.428972 328,303.745893 C328,304.063475 328.255994,304.32039 328.571783,304.32039 L329.188229,304.320096 L329.192395,313.183893 L329.1932,313.183893 L329.1932,313.794305 C329.1932,314.428808 329.70526,314.943299 330.336765,314.943299 L330.908547,314.943299 L330.908547,314.947633 L337.197936,314.94396 L337.197936,314.943299 L337.769719,314.943299 C338.393109,314.943299 338.89976,314.441881 338.912699,313.818689 L338.908021,305.450288 C338.908021,305.132706 338.652027,304.875791 338.336238,304.875791 C338.020449,304.875791 337.764456,305.132706 337.764456,305.450288 L337.768549,312.756508 C337.748447,313.621706 337.503052,313.780277 336.626446,313.780277 L337.220085,313.794966 L330.731866,313.798785 L331.480037,313.780277 C330.584571,313.780277 330.34773,313.615023 330.336911,312.699955 L330.343928,313.799006 L330.33618,313.799006 L330.331721,304.319582 L333.712855,304.317966 C333.729668,304.319435 333.746554,304.32039 333.763732,304.32039 C333.781056,304.32039 333.798235,304.319435 333.815194,304.317966 L334.281202,304.317746 C334.299111,304.319435 334.317167,304.32039 334.335515,304.32039 C334.354082,304.32039 334.372357,304.319435 334.390485,304.317672 L339.457654,304.315322 C339.773443,304.315322 340.02951,304.058407 340.02951,303.740825 C340.02951,303.423316 339.773443,303.166328 339.457727,303.166328 L339.457727,303.166328 Z M335.473743,304.872412 C335.157955,304.872412 334.901961,305.129328 334.901961,305.44691 L334.907297,312.650379 C334.907297,312.967373 335.163291,313.224876 335.479007,313.224876 C335.794795,313.224876 336.050789,312.967373 336.050789,312.650379 L336.045818,305.44691 C336.045818,305.129328 335.789825,304.872412 335.473743,304.872412 L335.473743,304.872412 Z M330.337075,312.726243 L330.336472,312.631282 C330.336472,312.663681 330.336673,312.695165 330.337075,312.726243 L330.337075,312.726243 Z" id="Fill-1"></path>
        </g>
    </g>
</svg>