<?xml version="1.0" standalone="no"?><!DOCTYPE svg PUBLIC "-//W3C//DTD SVG 1.1//EN" "http://www.w3.org/Graphics/SVG/1.1/DTD/svg11.dtd"><svg class="icon" width="200px" height="200.00px" viewBox="0 0 1024 1024" version="1.1" xmlns="http://www.w3.org/2000/svg"><path d="M906.755835 204.85561c-12.825888 0-24.411086 5.289708-32.711431 13.798112l-0.039311-0.039311L382.806292 710.35206 152.590382 479.207071l-0.069034 0.067116c-8.372255-9.401049-20.561498-15.326442-34.140045-15.326442-25.245243 0-45.710861 20.465618-45.710861 45.710861 0 13.51239 5.866906 25.650816 15.188375 34.019236l-0.050816 0.050816 262.514097 263.56782c0.059446 0.060404 0.113139 0.123685 0.173543 0.183131 8.286921 8.385678 19.794457 13.582382 32.514876 13.582382 12.733843 0 24.252884-5.20821 32.540764-13.606352l522.539146-523.625468c8.845903-8.33582 14.37627-20.150172 14.37627-33.2637C952.467655 225.321228 932.001079 204.85561 906.755835 204.85561z" /></svg>