<?xml version="1.0" encoding="UTF-8" standalone="no"?>
<svg width="21px" height="18px" viewBox="0 0 21 18" version="1.1" xmlns="http://www.w3.org/2000/svg" xmlns:xlink="http://www.w3.org/1999/xlink">
    <!-- Generator: Sketch 40.2 (33826) - http://www.bohemiancoding.com/sketch -->
    <title>18生命周期(1)</title>
    <desc>Created with Sketch.</desc>
    <defs></defs>
    <g id="Page-1" stroke="none" stroke-width="1" fill="none" fill-rule="evenodd">
        <g id="住院审核－详情2（住院信息汇总）" transform="translate(-1224.000000, -244.000000)" fill="#94A2AE">
            <g id="18生命周期(1)" transform="translate(1224.000000, 244.000000)">
                <g id="Group-3">
                    <path d="M19.607868,9.52883783 L16.2527473,9.52883783 C16.2325923,9.52883783 16.2126717,9.52989858 16.1929621,9.5316429 L15.7799026,9.53164293 C15.7772309,9.53164293 15.7746295,9.53147792 15.7719578,9.53143077 C15.4868824,9.52985143 15.2223368,9.34671985 15.1294131,9.05909314 L14.780123,7.97781761 L13.5132434,11.899554 C13.4863154,11.9829521 13.4445525,12.0572749 13.3920558,12.1208489 C13.3117172,12.2380257 13.1939748,12.3306169 13.0489997,12.3779968 C12.6981863,12.4926515 12.3213823,12.2995489 12.2074131,11.9466982 L10.6094062,7 L10,8.88642753 L10,13.5533486 L10,14.2958224 L10,14.5079713 L10,17.2455871 C10,17.2455871 13.4154684,13.7722155 16.2712148,10.8898434 L19.607868,10.8898434 C19.9815315,10.8898434 20.2844418,10.5851741 20.2844418,10.2093406 C20.2844418,9.83350716 19.9815315,9.52883783 19.607868,9.52883783 L19.607868,9.52883783 Z" id="Shape"></path>
                    <path d="M9.37582603,9.02973566 C9.27102026,9.27066604 9.03204339,9.43911223 8.75383467,9.43911223 L6.13908053,9.43911223 C5.76422176,9.43911223 5.46035064,9.13347646 5.46035064,8.75644081 C5.46035064,8.37940516 5.76422176,8.07376939 6.13908053,8.07376939 L8.30932412,8.07376939 L9.4508212,4.54017107 C9.46141426,4.50740585 9.47428064,4.47605497 9.48913906,4.44616556 C9.52975365,4.20811099 9.6968523,4.00011083 9.94110225,3.92029571 C10.2919157,3.80564105 10.6687196,3.99874364 10.7826889,4.35159433 L12.3905154,9.32870054 L13.6677304,5.37500036 C13.7157742,5.22623689 13.8106431,5.10604276 13.9304948,5.02516692 C13.9883348,4.981865 14.0539322,4.94700187 14.126326,4.92333547 C14.483303,4.80667719 14.8667394,5.00317415 14.9827241,5.36222429 L15.8050698,7.90782186 L17.9294726,7.90782186 C17.9936403,7.90782186 18.055652,7.91696784 18.1144763,7.93370402 C18.7120942,7.11018935 19.0651575,6.09571714 19.0651575,4.99808258 C19.0651575,3.62943967 18.5166615,2.38978325 17.6289059,1.48890494 C17.1438745,0.91534876 16.5081731,0.487114522 15.7256218,0.284418085 C15.2188183,0.10857027 14.6748923,0.0128204187 14.1086786,0.0128204187 C12.3452605,0.0128204187 10.7971489,0.939203722 9.91860369,2.33438882 L9.67203356,2.75866293 L9.53479237,3.07464686 C9.53422991,3.07599046 9.53371431,3.07738123 9.53315186,3.07872483 C9.5325894,3.07738123 9.53207381,3.07599046 9.53151135,3.07464686 L9.39427016,2.75866293 L9.14770003,2.33438882 C8.26915484,0.939227287 6.72101978,0.0128204187 4.95762508,0.0128204187 C4.3914114,0.0128204187 3.8475088,0.10857027 3.34068194,0.284418085 C2.55813059,0.487114522 1.92242917,0.91534876 1.43739779,1.48890494 C0.549642243,2.38978322 0.00114618803,3.62943965 0.00114618803,4.99808258 C0.00114618803,6.14877791 0.388965058,7.20824926 1.04004046,8.05196523 C1.2967818,8.53198734 1.61930798,8.97844282 2.00893143,9.37032887 C4.99688036,12.3756294 9.53151133,16.9871089 9.53151133,16.9871089 L9.53151135,14.2495166 L9.53151135,14.0373677 L9.53151135,13.2948939 L9.53151135,8.63808533 L9.46113304,8.85593863 C9.44067342,8.91934755 9.41158935,8.97749992 9.37582603,9.02973566 L9.37582603,9.02973566 Z" id="Shape"></path>
                </g>
            </g>
        </g>
    </g>
</svg>