<?xml version="1.0" encoding="UTF-8" standalone="no"?>
<svg width="20px" height="20px" viewBox="0 0 13 14" version="1.1" xmlns="http://www.w3.org/2000/svg" xmlns:xlink="http://www.w3.org/1999/xlink">
    <!-- Generator: Sketch 40.2 (33826) - http://www.bohemiancoding.com/sketch -->
    <title>Shape</title>
    <desc>Created with Sketch.</desc>
    <defs></defs>
    <g id="Page-1" stroke="none" stroke-width="1" fill="none" fill-rule="evenodd">
        <g id="小控件规范" transform="translate(-155.000000, -88.000000)" fill="#515253">
            <path d="M167.546033,100.849156 L167.044051,101.351148 C166.846569,101.549617 166.525471,101.549617 166.327186,101.351148 L164.303526,99.32665 C163.816491,99.6111192 163.249798,99.7748848 162.644089,99.7748848 C160.85608,99.7748848 159.309511,98.2498855 159.258064,96.4685204 L156.699258,96.4685204 L156.699258,95.6216683 L159.343527,95.6216683 C159.414877,95.3189776 159.532687,95.0378013 159.68039,94.7748165 L156.699258,94.7748165 L156.699258,93.9279644 L160.344155,93.9279644 C160.337516,93.9345818 160.334196,93.9445087 160.328391,93.9511261 C160.914167,93.4152297 161.686603,93.0811277 162.542863,93.0811277 C164.363234,93.0811277 165.939695,94.6582216 165.939695,96.4784481 C165.939695,97.1053305 165.765451,97.6908448 165.461786,98.1903581 L167.474652,100.203267 C167.672969,100.401752 167.744318,100.651487 167.546033,100.849156 L167.546033,100.849156 Z M162.542879,94.0950237 C161.283393,94.0950237 160.262013,95.1171986 160.262013,96.3775509 C160.262013,97.6379182 161.38462,98.760991 162.644105,98.760991 C163.904455,98.760991 164.925804,97.7387996 164.925804,96.4784488 C164.925804,95.21808 163.803198,94.0950237 162.542879,94.0950237 L162.542879,94.0950237 Z M156.699257,90.5405566 L162.646606,90.5405566 L162.646606,91.3874087 L156.699258,91.3874087 L156.699258,90.540556 L156.699257,90.5405566 Z M162.646592,92.4310828 C162.140472,92.5749946 161.665866,92.7867008 161.246042,93.0811119 L156.699258,93.0811119 L156.699258,92.2342598 L162.646606,92.2342598 L162.646606,92.4310834 L162.646592,92.4310828 Z M163.496228,92.2764294 L163.496228,89.6937039 L155.849621,89.6937039 L155.849621,98.1622251 L159.446406,98.1622251 C159.626457,98.7932166 159.933441,99.3646799 160.344155,99.8559136 L155.849621,99.8559136 C155.380002,99.8559136 155,99.4763343 155,99.0090919 L155,88.8468518 C155,88.3787632 155.380003,88 155.849621,88 L163.496212,88 C163.964981,88 164.345818,88.3787647 164.345818,88.8468518 L164.345818,92.2764289 C164.203937,92.2640252 164.066209,92.2342596 163.920992,92.2342596 C163.774988,92.2342601 163.638093,92.2640392 163.496228,92.2764294 L163.496228,92.2764294 Z" id="Shape"></path>
        </g>
    </g>
</svg>