<?xml version="1.0" encoding="UTF-8" standalone="no"?>
<svg width="17px" height="17px" viewBox="0 0 17 17" version="1.1" xmlns="http://www.w3.org/2000/svg" xmlns:xlink="http://www.w3.org/1999/xlink">
    <!-- Generator: Sketch 40.2 (33826) - http://www.bohemiancoding.com/sketch -->
    <title>Shape</title>
    <desc>Created with Sketch.</desc>
    <defs></defs>
    <g id="Page-1" stroke="none" stroke-width="1" fill="none" fill-rule="evenodd">
        <g id="住院审核－详情2（住院信息汇总）" transform="translate(-1367.000000, -188.000000)" fill="#94A2AE">
            <g id="Group-2" transform="translate(1224.500000, 188.000000)">
                <path d="M153.924865,10.4552357 C152.766035,10.9391141 151.743253,11.5628906 150.942323,12.4914766 C150.141904,11.5628906 149.119159,10.9946136 147.960583,10.5107535 C145.273583,11.6924442 143.314078,13.4609119 143,17 L158.885157,17 C158.571079,13.4609119 156.611301,11.6369082 153.924865,10.4552357 L153.924865,10.4552357 Z M150.740631,2.36296191 C149.826476,2.36296191 149.085388,3.1048528 149.085388,4.01982846 C149.085388,4.9353697 149.826476,5.67726059 150.740631,5.67726059 C151.654548,5.67726059 152.395618,4.93535144 152.395618,4.01982846 C152.395618,3.1048528 151.654548,2.36296191 150.740631,2.36296191 L150.740631,2.36296191 Z M150.740631,1.83755924 C151.826794,1.83755924 152.724912,2.63401918 152.890097,3.67530093 L155.54174,3.67530093 L155.54174,2.62533483 C155.54174,1.1814171 154.321116,-3.12512122e-13 152.878949,-3.12512122e-13 L148.683975,-3.12638804e-13 C147.242082,-3.12638804e-13 146.10312,1.1814171 146.10312,2.62533483 L146.10312,3.67530093 L148.590892,3.67530093 C148.75635,2.63401918 149.654468,1.83755924 150.740631,1.83755924 L150.740631,1.83755924 Z M150.771391,10.2385833 C153.019431,10.2385833 154.922032,8.66336049 155.397226,6.55633123 C155.474528,6.30921064 155.541758,6.04738502 155.541758,5.77578042 L155.541758,4.20055763 L152.910804,4.20055763 C152.819108,5.32127555 151.883151,6.20253553 150.740631,6.20253553 C149.597856,6.20253553 148.661917,5.32127555 148.570476,4.20055763 L146.10312,4.20055763 L146.10312,5.77578042 C146.10312,6.04740328 146.110728,6.30921064 146.188285,6.55633123 C146.662949,8.66336049 148.523387,10.2385833 150.771391,10.2385833 L150.771391,10.2385833 Z" id="Shape"></path>
            </g>
        </g>
    </g>
</svg>