<?xml version="1.0" encoding="UTF-8" standalone="no"?>
<svg width="19px" height="18px" viewBox="0 0 19 18" version="1.1" xmlns="http://www.w3.org/2000/svg" xmlns:xlink="http://www.w3.org/1999/xlink">
    <!-- Generator: Sketch 40.2 (33826) - http://www.bohemiancoding.com/sketch -->
    <title>Shape</title>
    <desc>Created with Sketch.</desc>
    <defs></defs>
    <g id="Page-1" stroke="none" stroke-width="1" fill="none" fill-rule="evenodd" opacity="0.704815765">
        <g id="住院审核－详情2（住院信息汇总）" transform="translate(-1366.000000, -245.000000)" fill="#6E7E8D">
            <g id="Group-2" transform="translate(1224.500000, 188.000000)">
                <path d="M152.69378,68.1782279 L153.473745,67.0181115 C153.527597,66.9362433 153.549731,66.8338348 153.529796,66.7360621 C153.51193,66.6382161 153.455935,66.5517855 153.371868,66.4961379 L151.891718,65.4900464 C151.719626,65.374152 151.487856,65.4199601 151.371687,65.5919052 L150.591722,66.7497129 C150.401802,67.0317623 150.332137,67.3696058 150.397514,67.7057453 C150.461829,68.0394845 150.651401,68.3276905 150.931563,68.5178855 C151.141492,68.661961 151.387463,68.7376725 151.641716,68.7376725 C152.063626,68.7376725 152.457814,68.5277434 152.693707,68.177495 L152.69378,68.1782279 Z M153.859907,63.8061424 C154.027967,63.8501914 154.199821,63.7500916 154.247883,63.5843947 C154.293929,63.4143186 154.195936,63.238434 154.028096,63.1923511 C153.991816,63.1802394 153.146034,62.9563846 152.532133,63.8704019 L152.014209,64.6385113 C151.916363,64.7844192 151.953907,64.9825115 152.098147,65.0825563 C152.151999,65.1188363 152.214042,65.1364082 152.276194,65.1364082 C152.378053,65.1364082 152.477951,65.0863126 152.538051,64.9962722 L153.055975,64.2264221 C153.401936,63.7160837 153.812248,63.7944521 153.860072,63.8065455 L153.859907,63.8061424 Z M149.543817,64.9340649 C149.715909,64.9340649 149.855696,64.7960544 149.861981,64.6238894 C149.866031,64.4480598 149.727929,64.3001364 149.551806,64.2957572 L147.367934,64.2375076 C147.185838,64.2356203 147.048121,64.3734843 147.042019,64.5476831 C147.03797,64.7235128 147.176072,64.8714361 147.350051,64.8758154 L149.544183,64.9340649 L149.543817,64.9340649 Z M142,66 C142,70.9698624 146.030009,75 151,75 C155.969991,75 160,70.9699906 160,66 C160,61.0300094 155.969991,57 151,57 C146.030009,57 142,61.0300094 142,66 L142,66 Z M155.465809,64.1981127 C155.561639,64.7002606 155.45793,65.2080887 155.171831,65.6319048 L153.218026,68.5341199 C152.864223,69.0600513 152.275901,69.3742579 151.641972,69.3742579 C151.26215,69.3742579 150.894018,69.2623213 150.578035,69.0461257 C150.156124,68.7601918 149.871968,68.3280569 149.773938,67.8261472 C149.678108,67.3239993 149.781817,66.8161713 150.065846,66.3923551 L152.019651,63.4901401 C152.375598,62.9642086 152.963388,62.650002 153.597537,62.650002 C153.977359,62.650002 154.34549,62.7619386 154.661474,62.9781343 C155.083385,63.2640682 155.367541,63.6982369 155.465571,64.1981127 L155.465809,64.1981127 Z M150.403762,64.6140682 C150.388041,65.6978867 149.499713,66.5621198 148.421685,66.5462336 C147.343656,66.5303473 146.483692,65.6401686 146.49956,64.5563867 C146.515282,63.4743821 147.40361,62.6102773 148.479146,62.6266216 C149.55701,62.6423429 150.419227,63.5326866 150.403194,64.6145446 L150.403762,64.6140682 Z" id="Shape"></path>
            </g>
        </g>
    </g>
</svg>