<?xml version="1.0" encoding="UTF-8" standalone="no"?>
<svg width="20px" height="20px" viewBox="0 0 12 13" version="1.1" xmlns="http://www.w3.org/2000/svg" xmlns:xlink="http://www.w3.org/1999/xlink">
    <!-- Generator: Sketch 40.2 (33826) - http://www.bohemiancoding.com/sketch -->
    <title>Fill 1</title>
    <desc>Created with Sketch.</desc>
    <defs></defs>
    <g id="Page-1" stroke="none" stroke-width="1" fill="none" fill-rule="evenodd">
        <g id="新增审方方案" transform="translate(-1135.000000, -549.000000)" fill="#515253">
            <path d="M1139.59142,551.872412 C1139.27724,551.872412 1139.02255,552.129328 1139.02255,552.44691 L1139.02785,559.650379 C1139.02785,559.967373 1139.28255,560.224876 1139.59673,560.224876 C1139.91084,560.224876 1140.16553,559.967373 1140.16553,559.650379 L1140.16029,552.44691 C1140.16029,552.129328 1139.90553,551.872412 1139.59142,551.872412 L1139.59142,551.872412 Z M1144.72117,559.851915 L1144.72187,560.794599 L1144.71287,560.794599 L1144.72117,559.851915 Z M1146.39942,550.166328 L1141.86967,550.168458 L1141.86713,549.574497 C1141.86713,549.256989 1141.61244,549 1141.29796,549 C1141.1944,549 1141.09731,549.02813 1141.01367,549.076972 C1140.92996,549.02813 1140.8328,549 1140.72909,549 C1140.41498,549 1140.16029,549.256989 1140.16029,549.574497 L1140.16291,550.169266 L1136.89425,550.170808 C1136.84836,550.158763 1136.80029,550.152373 1136.75069,550.152373 C1136.70095,550.152373 1136.65273,550.158836 1136.60676,550.170955 L1135.56887,550.171469 C1135.25469,550.171469 1135,550.428972 1135,550.745893 C1135,551.063475 1135.25469,551.32039 1135.56887,551.32039 L1136.18218,551.320096 L1136.18633,560.183893 L1136.18713,560.183893 L1136.18713,560.794305 C1136.18713,561.428808 1136.69658,561.943299 1137.32487,561.943299 L1137.89375,561.943299 L1137.89375,561.947633 L1144.15113,561.94396 L1144.15113,561.943299 L1144.72,561.943299 C1145.34022,561.943299 1145.84429,561.441881 1145.85716,560.818689 L1145.85251,552.450288 C1145.85251,552.132706 1145.59782,551.875791 1145.28364,551.875791 C1144.96945,551.875791 1144.71476,552.132706 1144.71476,552.450288 L1144.71884,559.756508 C1144.69884,560.621706 1144.45469,560.780277 1143.58255,560.780277 L1144.17316,560.794966 L1137.71796,560.798785 L1138.46233,560.780277 C1137.57142,560.780277 1137.33578,560.615023 1137.32502,559.699955 L1137.332,560.799006 L1137.32429,560.799006 L1137.31985,551.319582 L1140.68378,551.317966 C1140.70051,551.319435 1140.71731,551.32039 1140.7344,551.32039 C1140.75164,551.32039 1140.76873,551.319435 1140.7856,551.317966 L1141.24924,551.317746 C1141.26705,551.319435 1141.28502,551.32039 1141.30327,551.32039 C1141.32175,551.32039 1141.33993,551.319435 1141.35796,551.317672 L1146.39935,551.315322 C1146.71353,551.315322 1146.96829,551.058407 1146.96829,550.740825 C1146.96829,550.423316 1146.71353,550.166328 1146.39942,550.166328 L1146.39942,550.166328 Z M1142.43571,551.872412 C1142.12153,551.872412 1141.86684,552.129328 1141.86684,552.44691 L1141.87215,559.650379 C1141.87215,559.967373 1142.12684,560.224876 1142.44095,560.224876 C1142.75513,560.224876 1143.00982,559.967373 1143.00982,559.650379 L1143.00487,552.44691 C1143.00487,552.129328 1142.75018,551.872412 1142.43571,551.872412 L1142.43571,551.872412 Z M1137.32518,559.726243 L1137.32458,559.631282 C1137.32458,559.663681 1137.32478,559.695165 1137.32518,559.726243 L1137.32518,559.726243 Z" id="Fill-1"></path>
        </g>
    </g>
</svg>