<?xml version="1.0" encoding="UTF-8" standalone="no"?>
<svg width="20px" height="20px" viewBox="0 0 12 14" version="1.1" xmlns="http://www.w3.org/2000/svg" xmlns:xlink="http://www.w3.org/1999/xlink">
    <!-- Generator: Sketch 40.2 (33826) - http://www.bohemiancoding.com/sketch -->
    <title>编辑</title>
    <desc>Created with Sketch.</desc>
    <defs></defs>
    <g id="Page-1" stroke="none" stroke-width="1" fill="none" fill-rule="evenodd">
        <g id="审方方案列表" transform="translate(-1094.000000, -237.000000)" fill="#515253">
            <g id="编辑" transform="translate(1094.000000, 237.000000)">
                <path d="M10.0002163,13.0042248 L1.88637351,13.0042248 C0.853918227,13.0042248 0.013948252,12.0834143 0.013948252,10.9515932 L0.013948252,2.05685641 C0.013948252,0.925035357 0.853918227,0.00422482275 1.88637351,0.00422482275 L6.75467916,0.00422482275 C7.09933024,0.00422482275 7.37882092,0.310614302 7.3788209,0.688435338 C7.37882089,1.06625637 7.09933022,1.37264587 6.75467916,1.37264587 L1.88637351,1.37264587 C1.54222174,1.37264587 1.26223175,1.67958272 1.26223175,2.05685641 L1.26223175,10.9515932 C1.26223175,11.3288669 1.54222174,11.6358038 1.88637351,11.6358038 L10.0002163,11.6358038 C10.344368,11.6358038 10.624358,11.3288669 10.624358,10.9515932 L10.624358,6.84633009 C10.624358,6.46850903 10.9038487,6.16211956 11.2484998,6.16211956 C11.5931508,6.16211956 11.8726415,6.46850903 11.8726415,6.84633009 L11.8726415,10.9515932 C11.8726415,12.0834143 11.0326715,13.0042248 10.0002163,13.0042248 L10.0002163,13.0042248 Z" id="Shape"></path>
                <path d="M5.77414983,7.17410211 L6.31218178,6.97988384 L5.90494309,6.59128244 L5.09040809,5.81402466 L4.6831694,5.42542326 L4.47969403,5.93872224 L4.47934849,5.93943669 L3.89553025,7.41201124 C3.78345466,7.69471038 3.93411743,7.83847807 4.23031721,7.73147667 L4.83481124,7.51324215 L4.90668707,7.48730242 L5.77351631,7.17437689 L5.77414983,7.17410211 L5.77414983,7.17410211 Z M5.09017773,5.03687681 L9.3192171,1.00137955 L10.9481719,2.55584013 L6.71919009,6.59133739 L5.09017773,5.03687681 Z M11.6559298,0.326177049 C11.2060724,-0.103092586 10.4767172,-0.103092586 10.0269174,0.326177049 L9.72657098,0.612778142 L11.3555834,2.16723872 L11.6559298,1.88063763 C12.105672,1.45142295 12.105672,0.755446684 11.6559298,0.326177049 L11.6559298,0.326177049 Z" id="Shape"></path>
            </g>
        </g>
    </g>
</svg>