<?xml version="1.0" encoding="UTF-8" standalone="no"?>
<svg width="26px" height="24px" viewBox="0 0 26 24" version="1.1" xmlns="http://www.w3.org/2000/svg" xmlns:xlink="http://www.w3.org/1999/xlink">
    <!-- Generator: Sketch 40.2 (33826) - http://www.bohemiancoding.com/sketch -->
    <title>心</title>
    <desc>Created with Sketch.</desc>
    <defs></defs>
    <g id="Page-1" stroke="none" stroke-width="1" fill="none" fill-rule="evenodd">
        <g id="住院审核－详情2（住院信息汇总）" transform="translate(-548.000000, -913.000000)" stroke="#A7B1B4" fill="#A7B1B4">
            <g id="Group-5" transform="translate(177.000000, 356.000000)">
                <g id="心" transform="translate(372.000000, 558.000000)">
                    <path d="M12.367325,3.10441092 C12.018605,3.27816411 8.076725,-2.60056542 3.315845,1.39372087 C-1.445155,5.38800717 -0.415555001,10.1243993 2.266325,12.8607125 L12.088565,21.9732885 C12.088565,21.9732885 20.225405,14.5022608 21.949565,12.9429158 C22.0544846,12.8476866 22.1541512,12.7468413 22.248125,12.6408249 L21.521405,12.6303997 C19.875365,14.0821376 12.102965,20.9491033 12.102965,20.9491033 L2.912285,12.6408249 C2.886605,12.6120657 2.861285,12.5827074 2.835845,12.553469 L2.562725,12.5611381 L2.072045,11.6824262 L2.156885,11.6824262 C0.297724999,9.00590811 -0.299155001,5.27968104 3.734525,2.01599696 C8.276045,-1.6587033 12.034565,4.17293313 12.367325,4.01308019 C12.700085,3.85322726 16.497725,-0.62025836 20.256365,1.53667781 C24.418085,4.59940734 23.823845,9.39211951 22.255805,11.7623527 L22.272965,12.6120657 C24.250925,10.3538734 25.388765,4.49958913 20.635805,0.87270096 C16.695605,-1.47176883 12.716045,2.93065773 12.367325,3.10441092 Z" id="Shape"></path>
                    <path d="M22.2807382,11.6328511 L16.7366182,11.6328511 L15.7550182,9.8754274 L14.0916982,14.4544831 L12.4731382,6.6 L10.6026982,11.2334584 L9.78489818,9.39610826 L8.23101818,11.5530444 L2.18181818,11.5530444 C2.39222678,11.8554492 2.61892034,12.1462246 2.86089818,12.4240871 L8.23089818,12.2720231 L9.78477818,10.7167523 L10.5208582,12.1121702 L12.1974982,9.0418914 L13.9558582,15.6272572 L16.1122582,11.473118 L16.7366182,12.4317563 L21.5463382,12.500898 C21.8039782,12.271424 22.0527382,11.9777212 22.2807382,11.6328511 L22.2807382,11.6328511 Z" id="Shape" stroke-width="0.3"></path>
                </g>
            </g>
        </g>
    </g>
</svg>