<?xml version="1.0" encoding="UTF-8" standalone="no"?>
<svg width="23px" height="26px" viewBox="0 0 23 26" version="1.1" xmlns="http://www.w3.org/2000/svg" xmlns:xlink="http://www.w3.org/1999/xlink">
    <!-- Generator: Sketch 40.2 (33826) - http://www.bohemiancoding.com/sketch -->
    <title>防水</title>
    <desc>Created with Sketch.</desc>
    <defs></defs>
    <g id="Page-1" stroke="none" stroke-width="1" fill="none" fill-rule="evenodd">
        <g id="住院审核－详情2（住院信息汇总）" transform="translate(-326.000000, -816.000000)" fill="#A7B1B4">
            <g id="防水" transform="translate(327.000000, 817.000000)">
                <g id="Group-11">
                    <path d="M8.90553413,0 C4.89787438,4.74926889 1.30287385,9.50605399 0,14.2552921 L0,17.1998043 C0,17.3525315 0.329728813,18.4847708 0.568888481,19.0889953 C2.53125316,23.0122186 5.96158856,23.9910222 9.0617634,23.9910222 C14.1332037,23.9910222 18.2969931,20.8937827 18.2969931,15.6930475 C18.2969931,11.0124412 12.6571625,4.14507524 9.22682709,3.01026265e-08 L8.90553413,0 L8.90553413,0 Z M9.14429524,22.4311589 C5.31016824,22.4311589 1.60766044,19.3108163 1.60766044,15.616807 C1.60766044,12.4505354 7.02530274,4.69548471 9.0617634,2.20992436 C11.2717568,5.00167851 16.5243022,12.2977465 16.5243022,15.6930166 C16.5243022,19.3869643 12.7392626,22.4311589 9.14429524,22.4311589 L9.14429524,22.4311589 Z" id="Shape" stroke="#FFFFFF" stroke-width="0.2"></path>
                    <path d="M18.3602355,1.04347826 C17.1415563,2.48767158 16.0483616,3.93415047 15.6521739,5.37833442 L15.6521739,6.27372378 C15.6521739,6.32016622 15.7524403,6.66446605 15.8251658,6.84820315 C16.4218964,8.04120634 17.4650185,8.33884827 18.4077429,8.33884827 C19.9499045,8.33884827 21.2160608,7.39701647 21.2160608,5.81553787 C21.2160608,4.39222399 19.5010588,2.30394384 18.4579367,1.04347827 L18.3602355,1.04347826 L18.3602355,1.04347826 Z M18.4328398,7.86451335 C17.2669297,7.86451335 16.1410434,6.91565616 16.1410434,5.7923541 C16.1410434,4.82953046 17.7884807,2.47131648 18.4077429,1.71548864 C19.0797743,2.56442618 20.6770077,4.78306928 20.6770077,5.81552849 C20.6770077,6.93881182 19.5260245,7.86451335 18.4328398,7.86451335 L18.4328398,7.86451335 Z" id="Shape" stroke="#A7B1B4" stroke-width="0.5"></path>
                    <path d="M11.1222929,17.0579704 C10.7753574,16.828202 10.3075566,16.9259305 10.0755299,17.2723224 C10.0723284,17.2770524 9.74534682,17.7554592 9.24674648,17.7554592 C8.76194514,17.7554592 8.46037754,17.3128404 8.43990241,17.2817574 C8.21772868,16.9289086 7.75439517,16.8217451 7.40103174,17.0428043 C7.04570764,17.2655903 6.93645732,17.7365642 7.15716678,18.0948687 C7.42915091,18.5362363 8.17509078,19.2832025 9.24674646,19.2832025 C10.3129918,19.2832025 11.0682881,18.5417171 11.346452,18.1038282 C11.5701149,17.7517052 11.4685086,17.287964 11.1222929,17.0579704 L11.1222929,17.0579704 Z" id="Shape"></path>
                </g>
            </g>
        </g>
    </g>
</svg>