<?xml version="1.0" encoding="UTF-8" standalone="no"?>
<svg width="16px" height="16px" viewBox="0 0 16 16" version="1.1" xmlns="http://www.w3.org/2000/svg" xmlns:xlink="http://www.w3.org/1999/xlink">
    <!-- Generator: Sketch 40.2 (33826) - http://www.bohemiancoding.com/sketch -->
    <title>Group 21</title>
    <desc>Created with Sketch.</desc>
    <defs></defs>
    <g id="Page-1" stroke="none" stroke-width="1" fill="none" fill-rule="evenodd">
        <g id="审方系统－审方方案列表" transform="translate(-11.000000, -109.000000)" fill="#4EB7E0">
            <g id="Group-21" transform="translate(11.000000, 93.000000)">
                <path d="M5.71814335,22.3540452 C5.75778212,22.1475515 5.87861792,21.9655974 6.05356796,21.8489641 C6.228518,21.7323307 6.44295091,21.6907723 6.64880611,21.7336033 C7.0792578,21.8258129 7.35374542,22.2491692 7.26226798,22.6797771 C7.22128256,22.8855486 7.10015314,23.0665762 6.92557776,23.1829598 C6.75100238,23.2993434 6.53731173,23.3415291 6.33160522,23.3002189 C5.90271378,23.2057518 5.62936365,22.7841499 5.71814335,22.3540452 L5.71814335,22.3540452 Z M9.2337219,27.2090025 C9.0426366,27.4937449 8.66868093,27.5904002 8.36355223,27.4339126 L6.54875985,26.534272 C6.40436088,26.469215 6.29432308,26.3459756 6.24597296,26.1951587 C6.19762284,26.0443419 6.21549615,25.8800957 6.29515427,25.7432086 L6.31066532,25.7199421 C6.50208213,25.4366988 6.87275841,25.3374991 7.18005942,25.4872764 L8.99485177,26.3946726 C9.13959849,26.4593486 9.24997226,26.5825803 9.29837163,26.7335508 C9.34677101,26.8845214 9.3286199,27.0489566 9.24845738,27.1857359 L9.2337219,27.2090025 Z M7.88270979,21.1984723 C7.45318858,21.1047185 7.17900186,20.6828927 7.26769683,20.2522985 C7.30765538,20.045024 7.42926572,19.8625161 7.60517284,19.7458281 C7.78107996,19.6291402 7.99651314,19.5880702 8.2030129,19.6318566 C8.63414837,19.7233648 8.90970722,20.1467675 8.8188014,20.5780304 C8.77846424,20.7852607 8.6566544,20.9676365 8.48067888,21.0842731 C8.30470336,21.2009097 8.08928286,21.2420504 7.88270979,21.1984723 L7.88270979,21.1984723 Z M9.38573012,21.5862484 L9.39891451,21.5629818 C9.54603917,21.2501448 9.91828194,21.1149728 10.2318577,21.2605164 L12.0714677,22.1058684 C12.3824392,22.248907 12.5188242,22.6167646 12.3762597,22.9279538 L12.3630754,22.9589759 C12.2132263,23.2688114 11.8438716,23.4029346 11.5301322,23.2614413 L9.69052219,22.4160893 C9.3782106,22.2701731 9.24211141,21.8996232 9.38573012,21.5862484 L9.38573012,21.5862484 Z M11.2920377,25.0917447 C11.0621395,25.398839 10.6498839,25.5052067 10.3001063,25.347677 L8.18129742,24.4635474 C8.01931651,24.4175216 7.88786379,24.298935 7.82545514,24.1425337 C7.76304649,23.9861325 7.77674813,23.8096251 7.86254545,23.6647285 L7.87883203,23.6337064 C8.1087302,23.3266122 8.52098576,23.2202445 8.87076342,23.3777742 L10.9895723,24.2619038 C11.1519575,24.3099516 11.2832028,24.4300458 11.3454425,24.587538 C11.4076821,24.7450301 11.3939929,24.9224014 11.3083242,25.0684782 L11.2920377,25.0917447 Z M5.09304822,23.83535 C5.52823,23.9320463 5.80477117,24.3606851 5.71349006,24.7970349 C5.67198902,25.0061692 5.54875879,25.1901006 5.37113172,25.3080334 C5.19350464,25.4259661 4.9761642,25.4681512 4.76731625,25.4252322 C4.33213447,25.3285359 4.0555933,24.8998971 4.14687441,24.4635474 C4.18875718,24.2546193 4.31207026,24.0709508 4.48959107,23.9530886 C4.66711189,23.8352264 4.88424216,23.7928628 5.09304822,23.83535 L5.09304822,23.83535 Z M14.5353973,23.1295975 L11.1229673,28.5584635 C10.9050371,28.907462 9.64941793,30.8230761 8.74279729,31.3426962 C7.92296419,31.8586227 6.88063518,31.8616335 6.05783527,31.3504517 L0.716606665,27.4649347 C0.0290407793,26.6993634 -0.183010827,25.6182576 0.164413428,24.6496799 L0.368383675,23.9749494 L1.87605733,25.0374561 L1.87140401,25.0452116 C1.87140401,25.0452116 3.60398784,26.3093618 4.20504085,26.6738714 C4.89140463,27.0926696 6.5448821,27.9457772 6.5448821,27.9457772 C6.23705052,28.3707497 6.12998839,28.9088928 6.25172335,29.4193265 C6.31160544,29.588019 6.40769733,29.7415543 6.5332488,29.8691468 C6.68617614,30.0967821 6.90918017,30.2683237 7.16842613,30.3577448 C8.16268418,30.7144988 9.56255603,28.4964193 9.56255606,28.4964193 L14.1204769,21.5009376 L7.38402967,18.1350407 L3.54892362,24.2153707 C3.454844,24.4397948 3.20648472,24.5569454 2.9734638,24.4868139 C2.40498398,24.2231262 2.80051565,23.6181954 2.931584,23.4010407 L6.86208299,17.2586666 C7.11994458,17.0465924 7.45803182,16.958667 7.78654131,17.0182454 L14.4136356,20.0273883 C16.2842677,20.8804958 15.4373646,21.7180923 14.5353973,23.1295975 L14.5353973,23.1295975 Z" id="Shape"></path>
            </g>
        </g>
    </g>
</svg>