<?xml version="1.0" encoding="UTF-8" standalone="no"?>
<svg width="16px" height="16px" viewBox="0 0 16 16" version="1.1" xmlns="http://www.w3.org/2000/svg" xmlns:xlink="http://www.w3.org/1999/xlink">
    <!-- Generator: Sketch 40.2 (33826) - http://www.bohemiancoding.com/sketch -->
    <title>006-警示信息(1)</title>
    <desc>Created with Sketch.</desc>
    <defs></defs>
    <g id="Page-1" stroke="none" stroke-width="1" fill="none" fill-rule="evenodd">
        <g id="已审门诊处方查看" transform="translate(-16.000000, -660.000000)" fill="#4EB7E0">
            <g id="006-警示信息(1)" transform="translate(16.000000, 660.000000)">
                <g id="Group-20">
                    <path d="M15.2531962,12.0897109 L9.12035534,0.939765913 C8.79188414,0.342503158 8.29559496,0 7.75875929,0 C7.22194144,0 6.72561663,0.342521004 6.39716324,0.939765913 L0.264358032,12.0897109 C-0.0604595298,12.6801788 -0.0871756636,13.2810797 0.191000061,13.7519881 C0.469157969,14.2228965 1.01508318,14.4851108 1.68870759,14.4851108 L13.828918,14.4851108 C14.5025424,14.4851108 15.0484676,14.2228965 15.3266255,13.7519881 C15.6047121,13.2810797 15.5780138,12.680161 15.2531962,12.0897109 L15.2531962,12.0897109 Z M14.3172404,13.1547254 C14.2572138,13.2563974 14.0701117,13.3112906 13.828918,13.3112906 L1.68868975,13.3112906 C1.44749599,13.3112906 1.26041177,13.2563974 1.2003673,13.1547254 C1.14032282,13.0531426 1.17527303,12.8627283 1.29153008,12.6513233 L7.42435315,1.50335794 C7.54986016,1.27515328 7.68565084,1.17221508 7.75874148,1.17221508 C7.83183212,1.17221508 7.9676228,1.27668702 8.09314762,1.50498085 L14.2259885,12.6510558 C14.3423347,12.8625499 14.3772849,13.0531426 14.3172404,13.1547254 L14.3172404,13.1547254 Z" id="Shape"></path>
                    <path d="M7.95196241,9.60469924 C8.34038896,9.60469924 8.65408522,9.28925035 8.65408522,8.90075314 L8.65408522,4.84689243 C8.65408522,4.45830604 8.34038898,4.14285714 7.95196241,4.14285714 C7.56371407,4.14285714 7.25,4.45830604 7.25,4.84689243 L7.25,8.90077097 C7.25,9.28926818 7.56362495,9.60469924 7.95196241,9.60469924 L7.95196241,9.60469924 Z" id="Shape"></path>
                    <path d="M7.95340604,10.3571429 C7.76928038,10.3571429 7.5862597,10.4330268 7.45599404,10.5632868 C7.32581751,10.6936359 7.25,10.8768453 7.25,11.061089 C7.25,11.245404 7.32581751,11.428542 7.45599404,11.5588911 C7.5862597,11.6891511 7.76928036,11.7650172 7.95340604,11.7650172 C8.13760301,11.7650172 8.32062367,11.6891511 8.45088933,11.5588911 C8.58106586,11.428542 8.65697249,11.245404 8.65697249,11.061089 C8.65697249,10.8768453 8.58106588,10.6936359 8.45088933,10.5632868 C8.32062367,10.4330268 8.13760301,10.3571429 7.95340604,10.3571429 L7.95340604,10.3571429 Z" id="Shape"></path>
                </g>
            </g>
        </g>
    </g>
</svg>