<?xml version="1.0" encoding="UTF-8" standalone="no"?>
<svg width="12px" height="16px" viewBox="0 0 12 16" version="1.1" xmlns="http://www.w3.org/2000/svg" xmlns:xlink="http://www.w3.org/1999/xlink">
    <!-- Generator: Sketch 40.2 (33826) - http://www.bohemiancoding.com/sketch -->
    <title>Group</title>
    <desc>Created with Sketch.</desc>
    <defs></defs>
    <g id="Page-1" stroke="none" stroke-width="1" fill="none" fill-rule="evenodd">
        <g id="用药警示信息" transform="translate(-18.000000, -511.000000)" fill="#4EB7E0">
            <g id="Group-18" transform="translate(0.000000, 93.000000)">
                <g id="Group-21">
                    <g id="Group" transform="translate(18.000000, 418.000000)">
                        <path d="M11.5124379,15.1980673 L0.437604993,15.1980673 C0.198990198,15.1980673 0.00554978713,14.9975514 0.00554978713,14.7502089 L0.00554978713,4.296401 C0.00554978713,4.18648862 0.0438112755,4.08587922 0.107197599,4.0079462 C0.136276562,3.96072265 0.171710556,3.91540959 0.213302707,3.87361704 L3.85295766,0.216910189 C3.92978144,0.092842082 4.06393733,0.0105665355 4.2167208,0.0105665355 L11.5124379,0.0105665355 C11.7510527,0.0105665355 11.9444931,0.21108236 11.9444931,0.458424897 L11.9444931,14.7502089 C11.9444931,14.9975514 11.7510527,15.1980673 11.5124379,15.1980673 L11.5124379,15.1980673 Z M4.38079239,0.933999455 L1.28235495,4.0469609 L4.38079239,4.0469609 L4.38079239,0.933999455 L4.38079239,0.933999455 Z M4.8128476,4.94267763 C4.80458387,4.94267763 4.79638576,4.94238283 4.78823687,4.94190662 C4.78008798,4.94238283 4.77188986,4.94267763 4.76362612,4.94267763 L0.8696602,4.94267763 L0.8696602,14.3023505 L11.0803827,14.3023505 L11.0803827,0.906283259 L5.24490282,0.906283259 L5.24490282,4.49481926 C5.24490282,4.7421618 5.0514624,4.94267763 4.8128476,4.94267763 L4.8128476,4.94267763 Z" id="Shape"></path>
                        <g id="统计(1)" transform="translate(2.817761, 5.883179)">
                            <path d="M1.27878997,5.89627463 L1.27878997,1.97400061 C1.27878997,1.81821744 1.16183862,1.69705276 1.02483846,1.69705276 L0.256300982,1.69705276 C0.115959358,1.69705276 0.00234946641,1.82860299 0.00234946641,1.97400061 L0.00234946641,5.89627463 L1.27878997,5.89627463 L1.27878997,5.89627463 L1.27878997,5.89627463 L1.27878997,5.89627463 Z" id="Shape"></path>
                            <path d="M2.90608454,5.89627463 L2.90608454,0.291542385 C2.90608454,0.135759214 2.78913319,0.0042089821 2.65213303,0.0042089821 L1.88359555,0.0042089821 C1.74325393,0.0042089821 1.62964404,0.135759214 1.62964404,0.291542385 L1.62964404,5.89627462 L2.90608454,5.89627463 L2.90608454,5.89627463 L2.90608454,5.89627463 L2.90608454,5.89627463 Z" id="Shape"></path>
                            <path d="M4.53003765,5.89627463 L4.53003765,3.41759131 C4.53003765,3.26180814 4.41308629,3.13025791 4.27608613,3.13025791 L3.51089012,3.13025791 C3.3705485,3.13025791 3.25693861,3.26180814 3.25693861,3.41759131 L3.25693861,5.89627463 L4.53003765,5.89627463 L4.53003765,5.89627463 L4.53003765,5.89627463 L4.53003765,5.89627463 Z" id="Shape"></path>
                            <path d="M6.15399075,5.89627463 L6.15399075,1.97400061 C6.15399075,1.81821744 6.03703939,1.69705276 5.90003924,1.69705276 L5.13484322,1.69705276 C4.9945016,1.69705276 4.88089171,1.82860299 4.88089171,1.97400061 L4.88089171,5.89627463 L6.15399075,5.89627463 L6.15399075,5.89627463 L6.15399075,5.89627463 L6.15399075,5.89627463 Z" id="Shape"></path>
                        </g>
                    </g>
                </g>
            </g>
        </g>
    </g>
</svg>