<?xml version="1.0" encoding="UTF-8" standalone="no"?>
<svg width="16px" height="16px" viewBox="0 0 16 16" version="1.1" xmlns="http://www.w3.org/2000/svg" xmlns:xlink="http://www.w3.org/1999/xlink">
    <!-- Generator: Sketch 40.2 (33826) - http://www.bohemiancoding.com/sketch -->
    <title>Shape</title>
    <desc>Created with Sketch.</desc>
    <defs></defs>
    <g id="Page-1" stroke="none" stroke-width="1" fill="none" fill-rule="evenodd">
        <g id="审方系统－审方方案列表" transform="translate(-17.000000, -361.000000)" fill="#FFFFFF">
            <g id="Group-21" transform="translate(11.000000, 93.000000)">
                <path d="M18.1707273,272.0685 C17.6829273,272.0685 17.6365773,271.74675 17.6365773,270.8958 C17.6365773,270.0759 17.5785273,269.90895 17.1901773,269.62095 C17.0335773,269.5044 16.8985773,269.50125 12.3625773,269.50125 C7.86482735,269.50125 7.68212734,269.50575 7.48052734,269.6223 C7.35857734,269.69295 7.21727734,269.85315 7.13717735,270.01155 C7.04616763,270.192335 6.99870347,270.3919 6.99857735,270.5943 L6.99857735,280.18425 L7.13717735,280.4592 C7.37072734,280.92045 7.43912734,280.96455 9.08117735,281.00325 C10.6260273,281.0397 10.7187273,281.0415 10.7214273,281.5158 C10.7218773,281.6184 10.7106273,281.7345 10.6237773,281.8218 C10.4757273,281.97075 10.1661273,282 9.22787734,282 L9.02762735,281.99955 C8.19422735,281.99685 7.59797735,281.96355 7.39232735,281.90775 C6.82082735,281.7534 6.31637734,281.2692 6.10712734,280.67385 C6.01442735,280.41015 6.00002735,279.69915 6.00002735,275.23875 L6.00002735,274.6137 C5.99957735,269.7006 5.99957735,269.7006 6.44327735,269.20335 L6.49637734,269.1435 C6.64802734,268.9707 6.92072734,268.7565 7.10432735,268.6656 C7.32534239,268.556636 7.56846145,268.499975 7.81487735,268.5 L16.7383773,268.5 C17.0452437,268.499974 17.3477163,268.572931 17.6208273,268.71285 C17.7895773,268.79925 18.0532773,269.0823 18.2643273,269.33025 C18.4812273,269.5854 18.6049773,269.9067 18.6121773,270.24195 L18.6234273,270.73335 C18.6414273,271.5492 18.6252273,271.82595 18.4861773,271.96815 C18.4006773,272.05635 18.2836773,272.0685 18.1707273,272.0685 L18.1707273,272.0685 Z M8.74907734,277.63455 C8.58212735,277.13685 8.56502735,276.9906 8.56502735,276.069 C8.56502735,275.1474 8.58212735,275.0007 8.74907734,274.50345 C9.01412734,273.7119 9.37007734,273.1494 10.0189773,272.4969 C10.6651773,271.8471 11.2258773,271.49025 12.0201273,271.2243 C12.5160273,271.0578 12.6618273,271.0407 13.5811773,271.0407 C14.5000773,271.0407 14.6463273,271.0578 15.1422273,271.2243 C15.9369273,271.49025 16.4980773,271.84755 17.1429273,272.49825 C18.1378773,273.50085 18.5662773,274.4625 18.6211773,275.8161 C18.6706773,277.02435 18.4245273,277.9401 17.7990273,278.87745 L17.5164273,279.30135 L18.4645773,280.2594 C19.4995773,281.3052 19.4995773,281.42355 19.4995773,281.487 C19.4995773,281.6112 19.3920273,281.7606 19.2862773,281.8443 C19.1562273,281.9469 19.0900773,281.99235 19.0059273,281.99235 C18.9591273,281.99235 18.9064773,281.9784 18.8340273,281.9523 C18.7161273,281.91045 17.8296273,281.0307 17.7288273,280.9308 L16.8171273,280.02405 L16.3117773,280.3422 C15.9733773,280.55505 15.4765773,280.7922 15.1300773,280.90605 C14.5783773,281.0874 14.4456273,281.10405 13.5474273,281.10225 C12.6307773,281.1009 12.5272773,281.0865 11.9674773,280.8876 C11.1295773,280.58925 10.6741773,280.29765 10.0194273,279.6402 C9.37052734,278.9886 9.01457734,278.42655 8.74907734,277.63455 L8.74907734,277.63455 Z M11.7550773,279.68205 C12.6298773,280.1154 13.5028773,280.2315 14.4249273,280.03845 C15.7852773,279.7527 16.9021773,278.76675 17.4133773,277.40055 C17.5758273,276.96675 17.5947273,276.83355 17.5987773,276.10185 C17.6028273,275.36925 17.5848273,275.2311 17.4223773,274.75635 C17.0911773,273.78975 16.3918773,272.9667 15.5026773,272.4987 C14.8848273,272.1729 14.5342773,272.07075 13.8732273,272.02395 C13.7458773,272.01495 13.6239273,272.01045 13.5060273,272.01045 C12.8868273,272.01045 12.3810273,272.1387 11.7924273,272.43435 C11.1048273,272.77905 10.6098273,273.216 10.1868273,273.85005 C9.71117735,274.5633 9.55862734,275.1024 9.55862734,276.069 C9.55862734,276.76425 9.57887734,276.91185 9.73997734,277.38165 C10.0846393,278.382675 10.8081375,279.208607 11.7550773,279.68205 L11.7550773,279.68205 Z M12.3900273,273.0018 L12.3913773,273.0018 C12.5065773,273.0018 12.6213273,273.0567 12.7068273,273.15255 C12.8053773,273.26235 12.8544273,273.41355 12.8377773,273.55575 C12.8148273,273.75555 12.6771273,273.87885 12.3958773,274.06515 C12.0232773,274.31175 11.6655273,274.70325 11.4837273,275.06235 C11.3694273,275.2878 11.2191273,275.42325 11.0494773,275.4534 C11.026022,275.457686 11.0022208,275.459795 10.9783773,275.4597 C10.8838773,275.4597 10.7619273,275.42685 10.6327773,275.30625 C10.3857273,275.0754 10.4352273,274.91385 10.6390773,274.50975 C10.9531773,273.88875 11.9116773,273.0036 12.3900273,273.0018 L12.3900273,273.0018 Z M13.7800773,278.4378 C14.3556273,278.3658 14.7849273,278.175 15.1728273,277.81995 C15.5958273,277.43205 15.8257773,276.9825 15.9409773,276.3165 C16.0336773,275.781 16.1065773,275.5821 16.5133773,275.6181 C16.6654773,275.6316 16.7752773,275.68515 16.8499773,275.7819 C16.9683273,275.93445 16.9885773,276.17835 16.9188273,276.59775 C16.6857273,277.99545 15.6646773,279.084 14.3178273,279.3702 C14.0352273,279.43005 13.8399274,279.4638 13.6873773,279.4638 C13.5508335,279.468931 13.4165002,279.428219 13.3057773,279.34815 C13.2009273,279.2748 13.1307273,279.14205 13.1176773,278.9931 C13.1046273,278.8446 13.1505273,278.70195 13.2409773,278.6115 C13.3363773,278.51565 13.6356273,278.45625 13.7800773,278.4378 L13.7800773,278.4378 Z" id="Shape"></path>
            </g>
        </g>
    </g>
</svg>