<?xml version="1.0" encoding="UTF-8" standalone="no"?>
<svg width="14px" height="14px" viewBox="0 0 14 14" version="1.1" xmlns="http://www.w3.org/2000/svg" xmlns:xlink="http://www.w3.org/1999/xlink">
    <!-- Generator: Sketch 40.2 (33826) - http://www.bohemiancoding.com/sketch -->
    <title>Fill 1</title>
    <desc>Created with Sketch.</desc>
    <defs></defs>
    <g id="Welcome" stroke="none" stroke-width="1" fill="none" fill-rule="evenodd">
        <g id="-首页&gt;-资料管理&gt;分类管理&gt;资料分类管理（添加分类）" transform="translate(-308.000000, -301.000000)" fill="#909FA7">
            <path d="M317.805593,308.692992 L315.704899,308.692992 L315.704899,310.793686 C315.704899,311.180074 315.392011,311.492962 315.005623,311.492962 L315.004226,311.492962 C314.617838,311.492962 314.304877,311.180074 314.304877,310.793686 L314.304877,308.692992 L312.204182,308.692992 C311.817794,308.692992 311.504906,308.380104 311.504906,307.993716 L311.504906,307.992319 C311.504906,307.605931 311.817794,307.29297 312.204182,307.29297 L314.304877,307.29297 L314.304877,305.192275 C314.304877,304.805887 314.617838,304.492999 315.004226,304.492999 L315.005623,304.492999 C315.392011,304.492999 315.704899,304.805887 315.704899,305.192275 L315.704899,307.29297 L317.805593,307.29297 C318.191981,307.29297 318.504869,307.605931 318.504869,307.992319 L318.504869,307.993716 C318.504869,308.380104 318.191981,308.692992 317.805593,308.692992 M314.960788,302.305501 C311.819926,302.305501 309.383264,304.852119 309.383264,307.992981 C309.383264,311.133916 311.819926,313.592995 314.960788,313.592995 C318.102385,313.592995 320.649002,311.133916 320.649002,307.992981 C320.649002,304.852119 318.102385,302.305501 314.960788,302.305501 M315.000037,315 C311.133953,315 308,311.865385 308,307.999963 C308,304.13388 311.133953,301 315.000037,301 C318.86612,301 322,304.13388 322,307.999963 C322,311.865385 318.86612,315 315.000037,315" id="Fill-1"></path>
        </g>
    </g>
</svg>