<?xml version="1.0" encoding="UTF-8" standalone="no"?>
<svg width="17px" height="16px" viewBox="0 0 17 16" version="1.1" xmlns="http://www.w3.org/2000/svg" xmlns:xlink="http://www.w3.org/1999/xlink">
    <!-- Generator: Sketch 40.2 (33826) - http://www.bohemiancoding.com/sketch -->
    <title>Shape</title>
    <desc>Created with Sketch.</desc>
    <defs></defs>
    <g id="Page-1" stroke="none" stroke-width="1" fill="none" fill-rule="evenodd">
        <g id="住院审核－详情2（住院信息汇总）" transform="translate(-958.000000, -235.000000)" fill="#94A2AE">
            <g id="Group-13" transform="translate(958.000000, 228.000000)">
                <g id="Group-18">
                    <path d="M16.7130306,12.0233937 L15.7578067,11.0698634 C15.4935959,10.8056526 15.0227585,10.8479941 14.7060443,11.166402 L7.51984757,18.3525987 C7.20143962,18.669313 7.15909813,19.1401503 7.42330899,19.4043612 L8.3768392,20.3595851 C8.64105006,20.6221023 9.11188736,20.5797608 9.43029533,20.2613528 L16.6147983,13.0768498 C16.9332063,12.7584418 16.9772415,12.2876045 16.7130306,12.0233937 L16.7130306,12.0233937 Z M9.10172542,21.2453689 L9.1355986,21.2741611 L6.14628982,22.8526516 L12.1943474,22.8526516 C12.6448608,22.8526516 13.0073039,22.4885149 13.0073039,22.0396951 L13.0073039,17.4160051 L9.31173917,21.0946332 C9.24568646,21.1589923 9.17285911,21.1962528 9.10172542,21.2453689 L9.10172542,21.2453689 Z M6.47994073,18.9961893 C6.5392188,18.8386789 6.62220811,18.6845559 6.75600719,18.5524505 L13.0073039,12.329946 L13.0073039,7.81295649 C13.0073039,7.36413676 12.6431671,7 12.1943474,7 L0.812956494,7 C0.364136758,7 0,7.36413676 0,7.81295649 L0,22.0380015 C0,22.4885149 0.364136758,22.850958 0.812956494,22.850958 L4.83370383,22.850958 L6.44268022,18.9623161 L6.47994073,18.9961893 L6.47994073,18.9961893 Z M2.03239124,8.21943474 L10.5684344,8.21943474 C11.0189478,8.21943474 11.3813909,8.44299778 11.3813909,8.72075791 C11.3813909,8.99851804 11.0172542,9.22038742 10.5684344,9.22038742 L2.03239124,9.22038742 C1.5835715,9.22038742 1.21943474,8.99682439 1.21943474,8.72075791 C1.21943474,8.44299778 1.5835715,8.21943474 2.03239124,8.21943474 L2.03239124,8.21943474 Z M2.03239124,10.8971102 L10.5684344,10.8971102 C11.0189478,10.8971102 11.3813909,11.1325289 11.3813909,11.4221446 C11.3813909,11.7117604 11.0172542,11.947179 10.5684344,11.947179 L2.03239124,11.947179 C1.5835715,11.947179 1.21943474,11.7117603 1.21943474,11.4221446 C1.21943474,11.1325289 1.5835715,10.8971102 2.03239124,10.8971102 L2.03239124,10.8971102 Z M2.03239124,14.7196994 C1.5835715,14.7196994 1.21943474,14.4758124 1.21943474,14.1777284 C1.21943474,13.8796443 1.5835715,13.6357574 2.03239124,13.6357574 L7.31660845,13.6357574 C7.76542818,13.6357574 8.12956494,13.8779507 8.12956494,14.1777284 C8.12956494,14.4775061 7.76542818,14.7196994 7.31660845,14.7196994 L2.03239124,14.7196994 L2.03239124,14.7196994 Z M6.62559543,19.4619456 L5.09114004,23 L8.50725098,21.2589182 L6.62559543,19.4619456 L6.62559543,19.4619456 Z" id="Shape"></path>
                </g>
            </g>
        </g>
    </g>
</svg>