<?xml version="1.0" encoding="UTF-8" standalone="no"?>
<svg width="25px" height="28px" viewBox="0 0 25 28" version="1.1" xmlns="http://www.w3.org/2000/svg" xmlns:xlink="http://www.w3.org/1999/xlink">
    <!-- Generator: Sketch 40.2 (33826) - http://www.bohemiancoding.com/sketch -->
    <title>病历(1)</title>
    <desc>Created with Sketch.</desc>
    <defs></defs>
    <g id="Page-1" stroke="none" stroke-width="1" fill="none" fill-rule="evenodd">
        <g id="住院审核－详情2（住院信息汇总）" transform="translate(-319.000000, -1221.000000)" fill="#A7B1B4">
            <g id="病历(1)" transform="translate(319.000000, 1221.000000)">
                <path d="M12.7823723,26.0391335 L4.44789685,26.0391335 C3.11114838,26.0391335 2.02359928,24.9496322 2.02359928,23.6107319 L2.02359925,5.56731734 C2.02359925,4.22841712 3.11114838,3.13891581 4.44789682,3.13891581 C4.99930762,3.13891581 5.44610045,2.70202803 5.44610045,2.16284159 C5.44610045,1.62365516 4.99930762,1.18679934 4.44789682,1.18679934 C2.01025629,1.18679934 0.0272246753,3.151931 0.0272246753,5.56731734 L0.0272246753,23.6107319 C0.0272246753,26.0260863 2.01028898,27.9912499 4.44789682,27.9912499 L12.7823723,27.9912499 C13.3337831,27.9912499 13.7805432,27.5543621 13.7805432,27.0151757 C13.7805433,26.4759893 13.3337831,26.0391335 12.7823723,26.0391335 L12.7823723,26.0391335 Z" id="Shape"></path>
                <path d="M20.1911147,1.18679934 C19.6397039,1.18679934 19.1929111,1.62368712 19.1929111,2.16284159 C19.1929111,2.70199606 19.6397039,3.13891581 20.1911147,3.13891581 C21.5275688,3.13891581 22.6150852,4.22841712 22.6150852,5.56731734 L22.6150852,14.4897479 C22.6150852,15.0289344 23.0618781,15.4657902 23.6132889,15.4657902 C24.1646997,15.4657902 24.6114598,15.0289024 24.6114598,14.4897479 L24.6114598,5.56731734 C24.6114598,3.15196297 22.6284282,1.18679934 20.1911147,1.18679934 L20.1911147,1.18679934 Z" id="Shape"></path>
                <g id="Group-10" transform="translate(7.000000, 8.000000)">
                    <path d="M1.42390188,0.368074438 C0.87249109,0.368074438 0.425698252,0.804962219 0.425698252,1.34414866 L0.425698252,2.29636706 C0.425698252,2.8355535 0.87249109,3.27244128 1.42390188,3.27244128 C1.97531268,3.27244128 2.42207282,2.8355535 2.42207282,2.29636706 L2.42207282,1.34414866 C2.42210552,0.80496225 1.97531268,0.368074438 1.42390188,0.368074438 L1.42390188,0.368074438 Z" id="Shape"></path>
                    <path d="M9.21478264,0.368074438 C8.66337185,0.368074438 8.21657901,0.804962219 8.21657901,1.34414866 L8.21657901,2.29636706 C8.21657901,2.8355535 8.66337185,3.27244128 9.21478264,3.27244128 C9.76619343,3.27244128 10.2129536,2.8355535 10.2129536,2.29636706 L10.2129536,1.34414866 C10.2129536,0.80496225 9.76619343,0.368074438 9.21478264,0.368074438 L9.21478264,0.368074438 Z" id="Shape"></path>
                    <path d="M7.78093799,4.46296212 C7.3237782,4.16936919 6.70735319,4.2942445 6.40160978,4.73685644 C6.39739106,4.74290034 5.96652471,5.35419787 5.3095149,5.35419787 C4.67068813,5.35419787 4.27330999,4.78862934 4.24632974,4.74891225 C3.95356956,4.29804994 3.34303114,4.16111878 2.8774012,4.44358325 C2.40918767,4.72825425 2.26522762,5.33005422 2.5560583,5.78788781 C2.91445407,6.35185744 3.89738525,7.30631431 5.30951487,7.30631431 C6.71451518,7.30631431 7.7097755,6.35886069 8.07631439,5.79933603 C8.37103681,5.34940109 8.23714941,4.75684287 7.78093799,4.46296212 L7.78093799,4.46296212 Z" id="Shape"></path>
                </g>
                <path d="M9.32478042,5.22035259 L15.3139041,5.22035259 C16.7816294,5.22035259 17.975726,4.05269625 17.975726,2.61754131 C17.975726,1.18238637 16.7815967,0.01473 15.3139041,0.01473 L9.32478042,0.01473 C7.85705514,0.01473 6.66295858,1.18238634 6.66295858,2.61754128 C6.66295858,4.05269622 7.8570551,5.22035259 9.32478042,5.22035259 L9.32478042,5.22035259 Z M9.32478042,1.96684647 L15.3139041,1.96684647 C15.6745891,1.96684647 15.9793514,2.26488441 15.9793514,2.61754131 C15.9793514,2.97019822 15.6745564,3.26823616 15.3139041,3.26823616 L9.32478042,3.26823612 C8.96409544,3.26823612 8.65933312,2.97019819 8.65933312,2.61754128 C8.65933312,2.26488437 8.96409544,1.96684647 9.32478042,1.96684647 L9.32478042,1.96684647 Z" id="Shape"></path>
                <path d="M22.5325094,16.7967598 C21.0813646,15.967498 19.2364065,16.1546352 17.8973688,17.2266443 C16.5570229,16.1546351 14.7130459,15.967498 13.2622282,16.7967598 C12.1405695,17.4382448 11.4003625,18.5233012 11.2314171,19.7732377 C11.0611636,21.0327038 11.4809762,22.2680262 12.3832936,23.1624278 L16.8098197,27.5502369 C17.0996693,27.8368266 17.4853396,27.9947355 17.8967148,27.9950553 L17.8973688,27.9950553 C18.3084169,27.9950553 18.6944143,27.8371464 18.985245,27.5495973 L23.411117,23.1624278 C24.3134344,22.2680262 24.7332471,21.0327038 24.5629935,19.7732377 C24.3940481,18.5232692 23.654168,17.4385647 22.5325094,16.7967598 L22.5325094,16.7967598 Z M21.9898631,21.7911016 L17.8973688,25.8484787 L13.8045475,21.7911016 C13.3382634,21.3291108 13.1215385,20.6866664 13.2105897,20.0290003 C13.2996081,19.3713022 13.6758926,18.8219467 14.2701774,18.4819852 C14.5577378,18.3173928 14.8855886,18.2379587 15.2196204,18.2379587 C15.7921576,18.2379587 16.3841859,18.4711765 16.8264003,18.909951 L17.1867582,19.2670849 C17.3745734,19.4529429 17.6302807,19.55748 17.8973688,19.55748 L17.8976958,19.55748 C18.1647839,19.55748 18.4208182,19.4526231 18.6083064,19.2667651 L18.9680103,18.9096312 C19.6682212,18.2157017 20.7427871,18.0349283 21.5245601,18.4819852 C22.118845,18.8219467 22.4951295,19.3713022 22.5838209,20.0290003 C22.6728721,20.6866984 22.4561471,21.3291428 21.9898631,21.7911016 L21.9898631,21.7911016 Z" id="Shape"></path>
            </g>
        </g>
    </g>
</svg>