<?xml version="1.0" encoding="UTF-8" standalone="no"?>
<svg width="12px" height="12px" viewBox="0 0 12 12" version="1.1" xmlns="http://www.w3.org/2000/svg" xmlns:xlink="http://www.w3.org/1999/xlink">
    <!-- Generator: Sketch 40.2 (33826) - http://www.bohemiancoding.com/sketch -->
    <title>Shape</title>
    <desc>Created with Sketch.</desc>
    <defs></defs>
    <g id="Page-1" stroke="none" stroke-width="1" fill="none" fill-rule="evenodd" opacity="0.5">
        <g id="审方统计－药师工作统计" transform="translate(-307.000000, -201.000000)" fill="#515253">
            <g id="Group-33-Copy" transform="translate(179.000000, 183.000000)">
                <g id="Group-26">
                    <g id="Group-27">
                        <g id="Group-23">
                            <g id="Group-11">
                                <g id="Group-16">
                                    <g id="Group-7" transform="translate(19.000000, 18.000000)">
                                        <g id="Group-10">
                                            <g id="Group-13">
                                                <path d="M114.999984,0 C118.314283,0 121,2.6858637 121,5.99970736 C121,9.3134372 118.314348,11.9995936 114.999984,11.9995936 C111.686351,11.9995936 109,9.31346972 109,5.99970736 C109,2.68612383 111.686335,9.24158009e-16 114.999984,9.24158009e-16 L114.999984,9.24158009e-16 L114.999984,9.24158009e-16 L114.999984,0 Z M115.396483,8.06624035 C115.403084,7.68791763 115.429519,7.41423113 115.47522,7.24596125 C115.521198,7.07739873 115.590879,6.9286384 115.686167,6.7988511 C115.780837,6.66932394 115.982436,6.46741634 116.290736,6.19428262 C116.749828,5.78778485 117.058778,5.44220566 117.216188,5.1582604 C117.374231,4.87436391 117.452952,4.56396694 117.452952,4.22775234 C117.452952,3.64573364 117.228804,3.14997968 116.779873,2.73980761 C116.331007,2.32971684 115.730031,2.12444384 114.976377,2.12444384 C114.264848,2.12444384 113.69247,2.31555616 113.259472,2.69742311 C112.827384,3.07959897 112.566314,3.63010974 112.479398,4.34848395 L113.451527,4.46415933 C113.535662,3.92785801 113.713264,3.53365127 113.983032,3.28090503 C114.252882,3.02885788 114.589356,2.90259856 114.992668,2.90259856 C115.409099,2.90259856 115.762189,3.04205934 116.04976,3.32054193 C116.33699,3.59910581 116.480564,3.92268798 116.480564,4.2908007 C116.480564,4.49389514 116.431595,4.68167457 116.333039,4.85326108 C116.23567,5.02543287 116.022057,5.25584067 115.694215,5.54463081 C115.36704,5.83364856 115.139542,6.05387888 115.013348,6.20470397 C114.841469,6.4114727 114.717079,6.61669692 114.640179,6.82011652 C114.534974,7.0899011 114.482395,7.4108007 114.482395,7.7821325 C114.482395,7.84531093 114.483907,7.94025742 114.487517,8.06643544 L115.396434,8.06619157 L115.396483,8.06624035 Z M115.507395,9.96440591 L115.507395,8.88632435 L114.429508,8.88632435 L114.429508,9.96440591 L115.507395,9.96440591 L115.507395,9.96440591 Z" id="Shape"></path>
                                            </g>
                                        </g>
                                    </g>
                                </g>
                            </g>
                        </g>
                    </g>
                </g>
            </g>
        </g>
    </g>
</svg>