<?xml version="1.0" encoding="UTF-8" standalone="no"?>
<svg width="12px" height="12px" viewBox="0 0 12 12" version="1.1" xmlns="http://www.w3.org/2000/svg" xmlns:xlink="http://www.w3.org/1999/xlink">
    <!-- Generator: Sketch 40.2 (33826) - http://www.bohemiancoding.com/sketch -->
    <title>Shape</title>
    <desc>Created with Sketch.</desc>
    <defs></defs>
    <g id="Page-1" stroke="none" stroke-width="1" fill="none" fill-rule="evenodd">
        <g id="审方统计－药师工作统计" transform="translate(-470.000000, -201.000000)" fill="#4EB7E0">
            <g id="Group-33-Copy" transform="translate(179.000000, 183.000000)">
                <g id="Group-26">
                    <g id="Group-27">
                        <g id="Group-23">
                            <g id="Group-11">
                                <g id="Group-16">
                                    <g id="Group-7" transform="translate(19.000000, 18.000000)">
                                        <g id="Group-10">
                                            <g id="Group-13">
                                                <path d="M277.999984,0 C281.314283,0 284,2.6858637 284,5.99970736 C284,9.3134372 281.314348,11.9995936 277.999984,11.9995936 C274.686351,11.9995936 272,9.31346972 272,5.99970736 C272,2.68612383 274.686335,9.24158009e-16 277.999984,9.24158009e-16 L277.999984,9.24158009e-16 L277.999984,9.24158009e-16 L277.999984,0 Z M278.396483,8.06624035 C278.403084,7.68791763 278.429519,7.41423113 278.47522,7.24596125 C278.521198,7.07739873 278.590879,6.9286384 278.686167,6.7988511 C278.780837,6.66932394 278.982436,6.46741634 279.290736,6.19428262 C279.749828,5.78778485 280.058778,5.44220566 280.216188,5.1582604 C280.374231,4.87436391 280.452952,4.56396694 280.452952,4.22775234 C280.452952,3.64573364 280.228804,3.14997968 279.779873,2.73980761 C279.331007,2.32971684 278.730031,2.12444384 277.976377,2.12444384 C277.264848,2.12444384 276.69247,2.31555616 276.259472,2.69742311 C275.827384,3.07959897 275.566314,3.63010974 275.479398,4.34848395 L276.451527,4.46415933 C276.535662,3.92785801 276.713264,3.53365127 276.983032,3.28090503 C277.252882,3.02885788 277.589356,2.90259856 277.992668,2.90259856 C278.409099,2.90259856 278.762189,3.04205934 279.04976,3.32054193 C279.33699,3.59910581 279.480564,3.92268798 279.480564,4.2908007 C279.480564,4.49389514 279.431595,4.68167457 279.333039,4.85326108 C279.23567,5.02543287 279.022057,5.25584067 278.694215,5.54463081 C278.36704,5.83364856 278.139542,6.05387888 278.013348,6.20470397 C277.841469,6.4114727 277.717079,6.61669692 277.640179,6.82011652 C277.534974,7.0899011 277.482395,7.4108007 277.482395,7.7821325 C277.482395,7.84531093 277.483907,7.94025742 277.487517,8.06643544 L278.396434,8.06619157 L278.396483,8.06624035 Z M278.507395,9.96440591 L278.507395,8.88632435 L277.429508,8.88632435 L277.429508,9.96440591 L278.507395,9.96440591 L278.507395,9.96440591 Z" id="Shape"></path>
                                            </g>
                                        </g>
                                    </g>
                                </g>
                            </g>
                        </g>
                    </g>
                </g>
            </g>
        </g>
    </g>
</svg>