<?xml version="1.0" encoding="UTF-8" standalone="no"?>
<svg width="19px" height="16px" viewBox="0 0 19 16" version="1.1" xmlns="http://www.w3.org/2000/svg" xmlns:xlink="http://www.w3.org/1999/xlink">
    <!-- Generator: Sketch 40.2 (33826) - http://www.bohemiancoding.com/sketch -->
    <title>Group 20</title>
    <desc>Created with Sketch.</desc>
    <defs></defs>
    <g id="Page-1" stroke="none" stroke-width="1" fill="none" fill-rule="evenodd">
        <g id="住院审核－详情2（住院信息汇总）" transform="translate(-1087.000000, -235.000000)" fill="#94A2AE">
            <g id="Group-13" transform="translate(958.000000, 228.000000)">
                <g id="Group-20" transform="translate(129.000000, 7.000000)">
                    <path d="M17.2436825,14.9949797 L16.8326532,14.9949797 C16.8329053,14.9866872 16.8331574,14.9785007 16.8331574,14.9701658 L16.8331574,13.5239426 L15.8475191,13.5239426 L15.8475191,14.9701658 L13.3846626,14.9701658 L8.59183472,11.6972615 L13.3846626,8.72689519 L13.3846626,7.01293683 L15.8480233,7.01293683 L15.8477712,9.94928481 L16.8331574,9.94928481 L16.8331574,7.01293683 C16.8331574,6.46465679 16.3909291,6.01830441 15.8480233,6.01830441 L13.3846626,6.01830441 L13.3846626,1.6083743 C13.3846626,1.05981855 12.9424343,0.613741886 12.3992764,0.613741886 L2.29964481,0.613741886 C1.75648693,0.613741886 1.31425855,1.05981855 1.31425855,1.6083743 L1.31425855,14.9949797 L0.493208369,14.9949797 C0.220610463,14.9949797 0.000389185132,15.2173924 0.000389164601,15.4922747 C0.000389164601,15.767263 0.220631466,15.9896333 0.493208369,15.9896333 L17.2436825,15.9896333 C17.5160283,15.9896333 17.7362496,15.7672418 17.7362496,15.4922747 C17.7362496,15.2173924 17.5160073,14.9949797 17.2436825,14.9949797 L17.2436825,14.9949797 Z M4.63993196,4.8203681 L9.93589471,4.8203681 C10.2082405,4.8203681 10.4284618,5.04288684 10.4284618,5.31776914 C10.4284618,5.59263024 10.2082195,5.81510655 9.93589471,5.81510657 L4.63993196,5.81510657 C4.36733405,5.81510657 4.14711278,5.59263026 4.14711278,5.31776914 C4.14711278,5.04288682 4.36733408,4.8203681 4.63993196,4.8203681 L4.63993196,4.8203681 Z M4.14711278,7.8043714 C4.14711278,7.52948908 4.36735508,7.30709762 4.63993196,7.3070976 L9.93589471,7.3070976 C10.2082405,7.3070976 10.4284618,7.52948908 10.4284618,7.8043714 C10.4284618,8.07931735 10.2082195,8.30170881 9.93589471,8.30170881 L4.63993196,8.30170881 C4.36733405,8.30170881 4.14711278,8.07931733 4.14711278,7.8043714 L4.14711278,7.8043714 Z" id="Shape"></path>
                    <path d="M18.0648588,1.75416097 L16.8331995,1.75416097 L16.8331995,0.510838653 C16.8331995,0.236189637 16.6127681,0.0135012435 16.3405273,0.0135012228 C16.0682446,0.0135012228 15.8479182,0.236189617 15.8479182,0.510838653 L15.8479182,1.75416097 L14.6161539,1.75416097 C14.3438921,1.75416097 14.1235868,1.97674334 14.1235868,2.25139235 C14.1235868,2.5263595 14.3438921,2.74877219 14.6161539,2.74877219 L15.8479182,2.74877219 L15.8479182,3.9920521 C15.8479182,4.2669132 16.0682446,4.48943194 16.3405273,4.48943194 C16.6127891,4.48943194 16.8331994,4.2669132 16.8331995,3.9920521 L16.8331995,2.74877219 L18.0648588,2.74877219 C18.3371415,2.74877219 18.5575309,2.5263807 18.5575309,2.25139235 C18.5575309,1.97674334 18.3371415,1.75416097 18.0648588,1.75416097 L18.0648588,1.75416097 Z M15.8479392,14.970187 L15.8501946,14.970187 L15.8501946,15.086187 L15.8479392,15.086187 L15.8479392,14.970187 Z M13.6470079,12.574378 L13.6470079,13.9511437 L10.0495139,11.750431 L13.6470079,9.62568676 L13.6470079,10.8398263 L17.513066,10.8398263 C17.513066,10.8398263 17.9746231,10.8940562 17.9746231,11.5119847 L17.9746231,11.9889408 C17.9746231,11.9889408 17.985548,12.5309856 17.3734791,12.574378 L13.6470079,12.574378 L13.6470079,12.574378 Z" id="Shape"></path>
                </g>
            </g>
        </g>
    </g>
</svg>