<?xml version="1.0" encoding="UTF-8" standalone="no"?>
<svg width="14px" height="13px" viewBox="0 0 14 13" version="1.1" xmlns="http://www.w3.org/2000/svg" xmlns:xlink="http://www.w3.org/1999/xlink">
    <!-- Generator: Sketch 40.2 (33826) - http://www.bohemiancoding.com/sketch -->
    <title>Combined Shape</title>
    <desc>Created with Sketch.</desc>
    <defs></defs>
    <g id="Welcome" stroke="none" stroke-width="1" fill="none" fill-rule="evenodd">
        <g id="-首页&gt;-资料管理&gt;分类管理&gt;资料分类管理（添加分类）" transform="translate(-268.000000, -129.000000)" fill="#B4BCC2">
            <g id="Group-10" transform="translate(260.000000, 122.000000)">
                <path d="M17.6274564,17.7234929 C16.6206414,18.4802004 15.3662135,18.9290808 14.0062115,18.9290808 C10.6890725,18.9290808 8,16.2586651 8,12.9645404 C8,9.67041569 10.6890725,7 14.0062115,7 C17.3233505,7 20.0124229,9.67041569 20.0124229,12.9645404 C20.0124229,14.3010976 19.5697352,15.5349768 18.8220241,16.5294689 L20.8955866,18.4133485 C21.1103446,18.6084611 21.1085435,18.9126018 20.9109064,19.110239 L20.2084853,19.8126601 C20.0023962,20.0187492 19.6988397,20.0034383 19.5115948,19.7973402 L17.6274564,17.7234929 Z M14.0062115,17.9349907 C16.770494,17.9349907 19.0113877,15.7096443 19.0113877,12.9645404 C19.0113877,10.3238692 16.9377527,8.16416128 14.3193316,8.00365833 C14.2157787,7.99731079 14.1113739,7.99409006 14.0062115,7.99409006 C11.241929,7.99409006 9.00103524,10.2194365 9.00103524,12.9645404 C9.00103524,15.7096443 11.241929,17.9349907 14.0062115,17.9349907 Z M13.3428883,8.9342236 C13.0645513,8.98889608 12.7935056,9.07060569 12.532998,9.17787891 C12.009563,9.3934217 11.5342535,9.70993249 11.1339984,10.1074107 C10.7337706,10.5048617 10.4150922,10.9768088 10.1980865,11.4965091 C10.0900941,11.755137 10.0078385,12.0242206 9.95280166,12.3005382 C9.92061694,12.4621245 10.0266612,12.6189812 10.1896581,12.6508873 C10.3526551,12.6827935 10.5108811,12.577667 10.5430658,12.4160807 C10.5904015,12.1784272 10.6611314,11.9470478 10.7540014,11.7246361 C10.9407274,11.2774518 11.2151077,10.8711079 11.5598047,10.5288025 C11.9044743,10.1865242 12.313592,9.91409085 12.7637968,9.72870314 C12.9876894,9.63650745 13.2206032,9.56629308 13.4598281,9.51930322 C13.6228038,9.48729064 13.7287439,9.33036477 13.6964518,9.1687995 C13.6641598,9.00723422 13.505864,8.90221102 13.3428883,8.9342236 Z" id="Combined-Shape"></path>
            </g>
        </g>
    </g>
</svg>