<?xml version="1.0" encoding="UTF-8" standalone="no"?>
<svg width="20px" height="20px" viewBox="0 0 15 14" version="1.1" xmlns="http://www.w3.org/2000/svg" xmlns:xlink="http://www.w3.org/1999/xlink">
    <!-- Generator: Sketch 40.2 (33826) - http://www.bohemiancoding.com/sketch -->
    <title>Shape</title>
    <desc>Created with Sketch.</desc>
    <defs></defs>
    <g id="Page-1" stroke="none" stroke-width="1" fill="none" fill-rule="evenodd">
        <g id="审方方案列表" transform="translate(-1065.000000, -236.000000)" fill="#515253">
            <path d="M1067.13523,239.303861 L1073.91504,239.303861 L1073.91504,240.608679 L1067.13523,240.608679 L1067.13523,239.303861 L1067.13523,239.303861 Z M1074.47884,243.287112 L1074.47884,247.329309 L1077.57382,245.32069 L1074.47884,243.287112 L1074.47884,243.287112 Z M1075.51349,240.81837 C1076.12058,240.81837 1076.69189,240.933805 1077.23092,241.167666 C1077.77256,241.401526 1078.2434,241.721065 1078.64909,242.12097 C1079.05151,242.520858 1079.37435,242.991622 1079.60833,243.524496 C1079.84525,244.060241 1079.96359,244.628683 1079.96359,245.229752 C1079.96359,245.84564 1079.84525,246.420201 1079.60833,246.953144 C1079.37438,247.488872 1079.05151,247.956765 1078.64909,248.359404 C1078.2434,248.759102 1077.77256,249.072762 1077.23092,249.300898 C1076.69189,249.529327 1076.12058,249.641496 1075.51349,249.641496 C1074.89162,249.641496 1074.31124,249.529344 1073.77234,249.300898 C1073.23383,249.072762 1072.75997,248.759119 1072.35716,248.359404 C1071.95176,247.956645 1071.63196,247.488872 1071.39485,246.953144 C1071.158,246.420201 1071.03966,245.84564 1071.03966,245.229752 C1071.03966,244.628683 1071.15772,244.060241 1071.39485,243.524496 C1071.63177,242.991674 1071.95174,242.520858 1072.35716,242.12097 C1072.76001,241.721065 1073.23383,241.401526 1073.77234,241.167666 C1074.31125,240.93377 1074.89164,240.81837 1075.51349,240.81837 L1075.51349,240.81837 Z M1067.13523,241.773411 L1070.91661,241.773411 L1070.91661,243.078349 L1067.13523,243.078349 L1067.13523,241.773411 L1067.13523,241.773411 Z M1067.13523,244.243081 L1069.30188,244.243081 L1069.30188,245.548019 L1067.13523,245.548019 L1067.13523,244.243081 L1067.13523,244.243081 Z M1071.43821,248.597184 L1066.13179,248.597184 L1066.13179,237.028342 L1074.93649,237.028342 L1074.93649,240.083197 C1075.0271,240.078401 1075.1182,240.075839 1075.21024,240.075839 C1075.49202,240.075839 1075.76792,240.099064 1076.03724,240.143037 L1076.03724,236 L1065,236 L1065,249.625354 L1072.73407,249.625354 C1072.24778,249.354344 1071.81023,249.006217 1071.43821,248.597184 L1071.43821,248.597184 L1071.43821,248.597184 L1071.43821,248.597184 Z" id="Shape"></path>
        </g>
    </g>
</svg>