<?xml version="1.0" encoding="UTF-8" standalone="no"?>
<svg width="20px" height="20px" viewBox="0 0 25 23" version="1.1" xmlns="http://www.w3.org/2000/svg" xmlns:xlink="http://www.w3.org/1999/xlink">
    <!-- Generator: Sketch 40.2 (33826) - http://www.bohemiancoding.com/sketch -->
    <title>Shape</title>
    <desc>Created with Sketch.</desc>
    <defs></defs>
    <g id="Page-1" stroke="none" stroke-width="1" fill="none" fill-rule="evenodd">
        <g id="审方方案列表" transform="translate(-1060.000000, -234.000000)" fill="#515253">
            <path d="M1063.56737,239.519833 L1074.89456,239.519833 L1074.89456,241.699821 L1063.56737,241.699821 L1063.56737,239.519833 L1063.56737,239.519833 Z M1075.83651,246.174738 L1075.83651,252.928126 L1081.00736,249.572283 L1075.83651,246.174738 L1075.83651,246.174738 Z M1077.56513,242.050157 C1078.5794,242.050157 1079.5339,242.243016 1080.43447,242.633733 C1081.3394,243.024449 1082.12603,243.55831 1082.80384,244.22644 C1083.47617,244.894541 1084.01554,245.681058 1084.40646,246.571342 C1084.80229,247.466423 1085,248.416131 1085,249.420351 C1085,250.449327 1084.80229,251.40926 1084.40646,252.299659 C1084.0156,253.194711 1083.47617,253.976432 1082.80384,254.649128 C1082.12603,255.316914 1081.3394,255.840952 1080.43447,256.222104 C1079.5339,256.603745 1078.5794,256.791148 1077.56513,256.791148 C1076.52616,256.791148 1075.55649,256.603774 1074.65615,256.222104 C1073.75644,255.840952 1072.96476,255.316942 1072.29177,254.649128 C1071.61445,253.976231 1071.08016,253.194711 1070.68402,252.299659 C1070.2883,251.40926 1070.09059,250.449327 1070.09059,249.420351 C1070.09059,248.416131 1070.28784,247.466423 1070.68402,246.571342 C1071.07985,245.681144 1071.61443,244.894541 1072.29177,244.22644 C1072.96482,243.55831 1073.75644,243.024449 1074.65615,242.633733 C1075.55652,242.242959 1076.52618,242.050157 1077.56513,242.050157 L1077.56513,242.050157 Z M1063.56737,243.645765 L1069.88501,243.645765 L1069.88501,245.825954 L1063.56737,245.825954 L1063.56737,243.645765 L1063.56737,243.645765 Z M1063.56737,247.771897 L1067.18724,247.771897 L1067.18724,249.952086 L1063.56737,249.952086 L1063.56737,247.771897 L1063.56737,247.771897 Z M1070.75645,255.046393 L1061.89091,255.046393 L1061.89091,235.718073 L1076.60112,235.718073 L1076.60112,240.821887 C1076.7525,240.813874 1076.90469,240.809594 1077.05847,240.809594 C1077.52925,240.809594 1077.99019,240.848396 1078.44016,240.921864 L1078.44016,234 L1060,234 L1060,256.764179 L1072.92148,256.764179 C1072.10902,256.311397 1071.378,255.729774 1070.75645,255.046393 L1070.75645,255.046393 L1070.75645,255.046393 L1070.75645,255.046393 Z" id="Shape"></path>
        </g>
    </g>
</svg>