<?xml version="1.0" encoding="UTF-8" standalone="no"?>
<svg width="18px" height="18px" viewBox="0 0 18 18" version="1.1" xmlns="http://www.w3.org/2000/svg" xmlns:xlink="http://www.w3.org/1999/xlink">
    <!-- Generator: Sketch 40.2 (33826) - http://www.bohemiancoding.com/sketch -->
    <title>日历(2)</title>
    <desc>Created with Sketch.</desc>
    <defs></defs>
    <g id="Page-1" stroke="none" stroke-width="1" fill="none" fill-rule="evenodd">
        <g id="审方统计－药师工作统计" transform="translate(-351.000000, -95.000000)">
            <g id="日历(2)" transform="translate(351.000000, 95.000000)">
                <path d="M16.5762193,1.68091457 L15.7045667,1.68091457 L15.7045667,1.42192029 C15.7045667,0.645595714 15.0724273,0.0109671429 14.2998673,0.0109671429 L14.2791519,0.0109671429 C13.5065507,0.0109671429 12.8744524,0.645595714 12.8744524,1.42192029 L12.8744524,1.68091457 L5.10594043,1.68091457 L5.10594043,1.42192029 C5.10594043,0.645595714 4.47382157,0.0109671429 3.701241,0.0109671429 L3.67988786,0.0109671429 C2.90732786,0.0109671429 2.27518843,0.645595714 2.27518843,1.42192029 L2.27518843,1.68091457 L1.40540786,1.68091457 C0.632806714,1.68091457 0.000708428572,2.31618086 0.000708428572,3.09131229 L0.000708428572,16.5801831 C0.000708428572,17.3565283 0.632827286,17.9911774 1.40540786,17.9911774 L16.5762193,17.9911774 C17.3488204,17.9911774 17.9809187,17.3565283 17.9809187,16.5801831 L17.9809187,3.09131229 C17.9809187,2.31618086 17.3488204,1.68091457 16.5762193,1.68091457 L16.5762193,1.68091457 Z M13.4363199,1.42189971 C13.4363199,0.955380857 13.8138467,0.575364857 14.2791519,0.575364857 L14.2998673,0.575364857 C14.7645347,0.575364857 15.1426993,0.955401429 15.1426993,1.42189971 L15.1426993,3.93159343 C15.1426993,4.39815343 14.7645347,4.77814886 14.2998673,4.77814886 L14.2791519,4.77814886 C13.8138467,4.77814886 13.4363199,4.39815343 13.4363199,3.93159343 L13.4363199,1.42189971 L13.4363199,1.42189971 Z M2.83707643,1.42189971 C2.83707643,0.955380857 3.21460329,0.575364857 3.67990843,0.575364857 L3.70126157,0.575364857 C4.16529129,0.575364857 4.54409357,0.955401429 4.54409357,1.42189971 L4.54409357,3.93159343 C4.54409357,4.39815343 4.16529129,4.77814886 3.70126157,4.77814886 L3.67990843,4.77814886 C3.21460329,4.77814886 2.83707643,4.39815343 2.83707643,3.93159343 L2.83707643,1.42189971 L2.83707643,1.42189971 Z M16.5762193,16.8630403 L1.40540786,16.8630403 C1.25303529,16.8630403 1.12446386,16.7319591 1.12446386,16.5801831 L1.12446386,6.66259457 L16.8571427,6.66259457 L16.8571427,16.5801831 C16.8571427,16.7319591 16.7285919,16.8630403 16.5762193,16.8630403 L16.5762193,16.8630403 Z" id="Shape" fill="#515253"></path>
                <polygon id="Shape" fill="#000000" points="3.18927986 8.68258543 5.78127986 8.68258543 5.78127986 9.958014 3.18927986 9.958014"></polygon>
                <polygon id="Shape" fill="#000000" points="7.71499414 8.68258543 10.2864227 8.68258543 10.2864227 9.958014 7.71499414 9.958014"></polygon>
                <polygon id="Shape" fill="#000000" points="12.220137 8.68258543 14.7504227 8.68258543 14.7504227 9.958014 12.220137 9.958014"></polygon>
                <polygon id="Shape" fill="#000000" points="3.18927986 11.2745854 5.78127986 11.2745854 5.78127986 12.5294426 3.18927986 12.5294426"></polygon>
                <polygon id="Shape" fill="#000000" points="7.71499414 11.2745854 10.2864227 11.2745854 10.2864227 12.5294426 7.71499414 12.5294426"></polygon>
                <polygon id="Shape" fill="#000000" points="12.220137 11.2745854 14.7504227 11.2745854 14.7504227 12.5294426 12.220137 12.5294426"></polygon>
                <polygon id="Shape" fill="#000000" points="3.18927986 13.8048711 5.78127986 13.8048711 5.78127986 15.1214426 3.18927986 15.1214426"></polygon>
                <polygon id="Shape" fill="#000000" points="7.71499414 13.8048711 10.2864227 13.8048711 10.2864227 15.1214426 7.71499414 15.1214426"></polygon>
                <polygon id="Shape" fill="#000000" points="12.220137 13.8048711 14.7504227 13.8048711 14.7504227 15.1214426 12.220137 15.1214426"></polygon>
            </g>
        </g>
    </g>
</svg>