<?xml version="1.0" encoding="UTF-8" standalone="no"?>
<svg width="15px" height="15px" viewBox="0 0 15 15" version="1.1" xmlns="http://www.w3.org/2000/svg" xmlns:xlink="http://www.w3.org/1999/xlink">
    <!-- Generator: Sketch 40.2 (33826) - http://www.bohemiancoding.com/sketch -->
    <title>药师(1)</title>
    <desc>Created with Sketch.</desc>
    <defs></defs>
    <g id="Page-1" stroke="none" stroke-width="1" fill="none" fill-rule="evenodd">
        <g id="审核结果查看（住院医嘱查看－详情）" transform="translate(-1137.000000, -579.000000)" fill="#28C406">
            <g id="Group-5" transform="translate(180.000000, 244.000000)">
                <g id="药师(1)" transform="translate(957.000000, 335.000000)">
                    <path d="M10.5687917,11.100115 C10.2095117,11.6300484 9.84394244,12.1560796 9.4937394,12.6916314 C9.26580209,13.0400736 9.21318203,13.4299015 9.32376548,13.8256878 C9.49694207,14.4459862 9.92234982,14.8354741 10.5656222,14.9505151 C11.2183201,15.0671428 11.7503951,14.8333206 12.1302851,14.3001166 C12.474033,13.8175921 12.8064305,13.3272632 13.1434246,12.840108 C13.1606493,12.8151406 13.1740076,12.7875502 13.1855239,12.7674079 C12.319392,12.2022255 11.460545,11.6417711 10.5926873,11.0754391 C10.5849876,11.0832434 10.5752302,11.0906268 10.5687917,11.100115 L10.5687917,11.100115 Z" id="Shape"></path>
                    <path d="M14.9038818,9.03970741 C14.6880417,8.45211592 14.2486119,8.09332728 13.6134208,8.01423153 C12.9869749,7.93618824 12.4839729,8.1728278 12.1261033,8.68577623 C11.7940875,9.16167839 11.4646271,9.63934541 11.1343537,10.1164134 C11.1123498,10.148165 11.093001,10.1815196 11.0843057,10.1954119 C11.9457415,10.7685606 12.7990793,11.3363498 13.6530145,11.90456 C14.0377002,11.3480077 14.4222365,10.8154351 14.7799899,10.2662176 C15.0272926,9.88667139 15.058307,9.45958677 14.9038818,9.03970741 L14.9038818,9.03970741 Z" id="Shape"></path>
                    <path d="M3.76286515,6.42524103 C4.1190089,6.7728575 4.54597649,7.0512065 5.01145912,7.23931997 C5.47692516,7.42743343 5.98052455,7.52519804 6.4842899,7.52519804 C6.98812163,7.52519804 7.49175422,7.42743343 7.95720365,7.23931997 C8.42266969,7.0512065 8.84963728,6.7728575 9.20579762,6.42524103 C9.56207411,6.07770552 9.84732764,5.66109684 10.0401185,5.20693995 C10.2328928,4.75281544 10.3331049,4.2613694 10.3331049,3.76985859 C10.3331049,3.27825063 10.2328928,2.78683698 10.0401185,2.33269628 C9.84732764,1.87850701 9.56205752,1.46199547 9.20579762,1.11436282 C8.84963728,0.766730158 8.42266969,0.488381155 7.95720365,0.300283877 C7.4917542,0.112170411 6.98812161,0.014405807 6.4842899,0.014405807 C5.98052455,0.014405807 5.47692516,0.112170411 5.01145912,0.300283877 C4.54599308,0.488381155 4.11900889,0.766730158 3.76286515,1.11436282 C3.40658865,1.46197929 3.12131854,1.87849081 2.92854425,2.33269628 C2.73576996,2.78683698 2.63554125,3.27825063 2.63554125,3.76985859 C2.63554125,4.2613694 2.73576994,4.75281544 2.92854425,5.20693995 C3.12131854,5.66109684 3.40658865,6.07772171 3.76286515,6.42524103 L3.76286515,6.42524103 Z" id="Shape"></path>
                    <path d="M6.34264219,8.70289071 C2.84270267,8.70289071 0.00531797838,11.4714197 0.00531797838,14.8864451 C0.00531797838,14.9232809 0.00606471892,14.9596309 0.00656254054,14.9962238 L8.3309538,14.9962238 C8.04095436,14.3548926 7.87994128,13.6457187 7.87994128,12.8997253 C7.87994128,11.5516974 8.40571048,10.3234386 9.26800912,9.39983995 C8.39298274,8.95463698 7.39793087,8.70289071 6.34264219,8.70289071 L6.34264219,8.70289071 Z M6.56790785,12.9155606 L5.36730417,12.9155606 L5.36730417,14.0870357 L3.90602291,14.0870357 L3.90602291,12.9155606 L2.70540264,12.9155606 L2.70540264,11.4897485 L3.90602291,11.4897485 L3.90602291,10.3182249 L5.36730417,10.3182249 L5.36730417,11.4897485 L6.56790785,11.4897485 L6.56790785,12.9155606 L6.56790785,12.9155606 Z" id="Shape"></path>
                </g>
            </g>
        </g>
    </g>
</svg>